<?xml version="1.0" standalone="no"?>
<!DOCTYPE svg PUBLIC "-//W3C//DTD SVG 20010904//EN"
 "http://www.w3.org/TR/2001/REC-SVG-20010904/DTD/svg10.dtd">
<svg version="1.0" xmlns="http://www.w3.org/2000/svg"
 width="2888.000000pt" height="6059.000000pt" viewBox="0 0 2888.000000 6059.000000"
 preserveAspectRatio="xMidYMid meet">

<g transform="translate(0.000000,6059.000000) scale(0.100000,-0.100000)"
fill="#000000" stroke="none">
<path d="M2425 60509 c-591 -53 -1167 -175 -1889 -400 -159 -49 -296 -87 -304
-84 -17 6 -172 -32 -190 -48 -7 -6 -11 -18 -9 -27 2 -9 193 -264 424 -566
2075 -2716 3651 -5249 5101 -8199 595 -1212 1083 -2329 1642 -3760 634 -1623
1203 -3398 1694 -5285 313 -1203 645 -2777 841 -3985 322 -1983 520 -3817 594
-5510 46 -1026 64 -1939 56 -2765 -18 -1930 -143 -3810 -365 -5503 -323 -2454
-721 -4440 -1364 -6807 -327 -1204 -825 -2742 -1261 -3890 -687 -1811 -1444
-3530 -2213 -5030 -1081 -2109 -2245 -4029 -3566 -5880 -404 -566 -1079 -1471
-1409 -1888 -92 -117 -171 -220 -174 -228 -10 -26 17 -44 64 -44 27 0 131 -27
266 -69 780 -244 1392 -388 1877 -443 266 -30 289 -31 720 -31 l445 0 275 36
c525 69 1144 218 1940 467 l224 70 229 0 c150 0 226 3 222 10 -4 6 -80 10
-193 11 l-187 0 205 65 c713 225 1357 372 1948 443 224 28 282 31 520 31 765
-1 1413 -107 2382 -390 370 -108 492 -148 463 -149 -13 -1 -23 -5 -23 -11 0
-6 28 -10 63 -10 52 0 120 -18 383 -99 872 -271 1378 -387 1969 -451 611 -67
1266 -27 1955 119 436 92 1032 252 1400 376 132 44 177 55 229 55 60 0 76 13
26 22 -34 6 1015 304 1260 357 316 69 610 117 930 152 615 66 1284 24 1910
-120 488 -112 736 -177 1064 -279 l344 -107 -181 -3 c-110 -1 -182 -6 -182
-12 0 -6 84 -10 221 -10 l221 0 351 -109 c1075 -335 1818 -470 2582 -471 570
0 1152 85 1825 266 271 73 762 216 874 254 50 16 109 30 132 30 24 0 47 6 54
15 10 12 -34 141 -235 697 -558 1538 -1234 3618 -1669 5128 -883 3070 -1524
5817 -2101 9008 -388 2147 -765 4986 -964 7267 -158 1795 -276 3904 -310 5530
-33 1530 -36 2616 -12 3700 42 1859 151 3913 291 5532 177 2034 348 3489 646
5507 336 2281 882 5073 1422 7276 463 1886 879 3398 1462 5310 325 1064 699
2184 1180 3533 255 717 300 851 289 862 -20 19 -181 65 -204 59 -11 -3 -92 17
-180 45 -329 102 -617 182 -840 231 -578 129 -697 151 -975 182 -265 30 -291
31 -715 31 -439 1 -440 1 -695 -32 -580 -74 -1072 -190 -1910 -453 l-225 -70
-252 1 c-163 1 -253 -2 -258 -8 -4 -7 67 -11 215 -13 l222 -3 -249 -77 c-809
-250 -1382 -380 -1933 -438 -524 -55 -896 -51 -1425 15 -500 63 -1032 188
-1815 428 -224 68 -232 72 -182 75 88 5 58 22 -39 22 -87 0 -107 5 -383 89
-868 266 -1360 378 -1941 441 -233 26 -309 30 -550 30 -659 0 -1225 -76 -1865
-250 -258 -70 -660 -186 -899 -260 -137 -42 -176 -50 -242 -50 -43 0 -81 -4
-84 -10 -4 -6 12 -10 42 -10 41 -1 6 -14 -222 -86 -855 -268 -1326 -374 -1979
-444 -239 -26 -317 -30 -545 -30 -503 1 -916 46 -1366 149 -490 112 -767 185
-1115 295 l-365 115 218 0 c145 1 217 5 217 12 0 7 -82 10 -252 9 l-253 -1
-305 96 c-534 167 -1072 302 -1505 376 -491 84 -1093 111 -1560 68z m1040 -24
c658 -58 1175 -179 2415 -565 724 -226 890 -272 1455 -401 453 -104 863 -148
1376 -149 239 0 314 4 555 30 659 71 1087 167 1984 446 l336 104 147 0 c91 0
147 4 147 10 0 6 -43 10 -107 11 l-108 1 60 20 c125 41 611 182 875 254 683
187 1237 264 1905 264 691 0 1432 -142 2525 -484 l175 -55 -97 0 c-53 -1 -100
-5 -103 -11 -4 -6 43 -10 134 -10 l139 0 239 -74 c1008 -315 1683 -456 2363
-497 430 -25 1015 16 1480 105 525 99 873 192 1670 441 1141 358 1580 466
2210 546 254 33 257 33 685 32 412 0 441 -2 705 -31 278 -31 396 -53 975 -182
127 -28 316 -76 420 -106 190 -55 588 -175 593 -179 1 -1 0 -10 -4 -19 -5 -14
-31 -16 -219 -16 -129 0 -216 -4 -220 -10 -4 -6 72 -11 209 -12 l214 -3 -304
-840 c-938 -2588 -1965 -6018 -2631 -8780 -412 -1710 -859 -3876 -1132 -5485
-348 -2047 -592 -3782 -766 -5456 -212 -2049 -346 -3843 -410 -5524 -104
-2738 -101 -5110 10 -7395 101 -2064 241 -3864 430 -5524 373 -3259 843 -6104
1505 -9101 374 -1690 806 -3377 1366 -5335 432 -1509 1125 -3638 1674 -5145
133 -366 245 -673 247 -682 5 -17 -10 -18 -206 -18 -134 0 -211 -4 -211 -10 0
-6 78 -10 214 -10 178 0 216 -3 226 -15 7 -8 22 -15 34 -16 32 -1 -31 -22
-314 -105 -863 -253 -1344 -355 -1905 -404 -607 -54 -1279 1 -1975 160 -392
89 -695 175 -1450 410 -723 226 -890 272 -1455 401 -453 104 -861 148 -1371
149 -245 0 -318 -4 -560 -30 -571 -61 -978 -146 -1695 -355 -273 -80 -515
-152 -539 -160 -31 -11 -86 -15 -211 -15 -106 0 -169 -4 -169 -10 0 -6 51 -10
133 -11 l132 -1 -130 -44 c-174 -60 -627 -189 -905 -259 -738 -185 -1245 -255
-1855 -255 -230 0 -310 5 -540 30 -293 31 -620 88 -975 170 -249 56 -450 113
-920 258 l-314 97 127 3 c188 4 151 22 -46 22 l-162 0 -180 55 c-1229 379
-1920 504 -2777 505 -249 0 -304 -3 -530 -31 -436 -52 -1029 -173 -1469 -299
-118 -34 -450 -135 -739 -225 -656 -204 -913 -279 -1205 -350 -404 -98 -689
-155 -975 -192 l-275 -36 -435 0 c-419 0 -445 1 -710 31 -475 53 -1072 193
-1848 433 -121 37 -167 55 -153 60 10 4 22 12 26 18 4 7 81 11 226 11 144 0
218 3 214 10 -4 6 -83 10 -206 10 -109 0 -199 2 -199 5 0 3 76 99 168 213 473
581 1596 2133 2167 2994 2315 3486 4137 7189 5466 11108 278 819 620 1915 764
2450 59 217 134 492 167 610 33 118 135 521 228 895 659 2663 1095 5485 1275
8250 58 897 84 1557 97 2532 9 673 8 906 -6 1545 -30 1342 -121 2817 -246
3958 -27 250 -59 545 -70 655 -11 110 -63 508 -115 885 -170 1227 -471 2903
-694 3870 -55 239 -123 539 -151 665 -28 127 -97 410 -155 630 -57 220 -131
510 -165 645 -34 135 -101 380 -150 545 -49 165 -139 476 -200 690 -61 215
-185 615 -275 890 -90 275 -182 561 -206 635 -94 301 -532 1514 -762 2115
-134 352 -348 885 -475 1185 -126 300 -253 601 -282 670 -147 352 -654 1448
-923 1995 -827 1685 -1610 3070 -2714 4800 -424 665 -1046 1581 -1397 2055
-132 179 -313 424 -401 545 -89 121 -341 452 -560 735 l-398 515 212 3 c129 1
211 6 211 12 0 6 -84 10 -224 10 -192 0 -225 2 -230 15 -3 9 0 18 7 20 380
127 934 280 1252 346 722 150 1302 190 1940 134z m25278 -541 c15 -4 27 -9 27
-13 0 -3 -26 -78 -58 -167 l-57 -160 -89 -95 c-49 -52 -86 -86 -83 -77 3 9 47
132 98 273 85 236 94 256 113 250 12 -3 33 -8 49 -11z m-28486 -61 l51 -68
-20 -27 c-10 -16 -22 -28 -26 -27 -4 0 -37 40 -74 89 -63 82 -66 89 -45 93 55
11 62 7 114 -60z m171 -221 l99 -129 -19 -26 c-11 -15 -23 -27 -28 -27 -8 0
-200 246 -200 256 0 10 33 54 40 54 5 0 53 -58 108 -128z m28072 -493 l-129
-364 -83 -77 c-45 -42 -83 -76 -85 -75 -1 1 55 160 125 353 l127 350 84 92
c46 51 86 91 87 89 2 -2 -54 -167 -126 -368z m-27851 206 l100 -130 -27 -22
c-15 -12 -30 -21 -34 -20 -3 1 -49 58 -101 126 l-95 124 21 29 c12 16 24 27
28 26 4 -2 53 -61 108 -133z m215 -280 l97 -125 -21 -30 c-12 -16 -24 -30 -28
-30 -4 1 -53 61 -109 135 l-102 134 26 21 c14 11 29 20 33 20 4 0 51 -56 104
-125z m225 -295 l91 -124 -27 -23 c-16 -12 -31 -22 -35 -23 -7 0 -188 246
-188 256 0 3 10 19 21 36 26 36 17 44 138 -122z m27167 -315 c-51 -143 -107
-303 -125 -355 -30 -93 -34 -98 -116 -180 -47 -47 -85 -82 -85 -79 0 9 154
461 204 599 l45 125 83 77 c45 42 83 76 85 75 1 -2 -40 -119 -91 -262z
m-26946 17 l83 -114 -29 -24 c-16 -13 -32 -22 -36 -21 -5 1 -51 61 -103 132
l-95 130 31 27 32 27 17 -22 c9 -12 54 -73 100 -135z m176 -242 c38 -52 80
-110 93 -129 l24 -33 -29 -24 c-16 -13 -32 -22 -36 -21 -3 1 -49 61 -102 132
l-95 130 31 27 c18 16 35 25 39 20 3 -4 37 -50 75 -102z m229 -314 c48 -65 89
-124 91 -130 3 -7 -8 -24 -24 -39 l-28 -27 -101 138 -101 137 31 27 c17 16 34
25 38 20 4 -4 46 -61 94 -126z m26246 -322 l-119 -349 -73 -67 c-40 -38 -74
-67 -75 -65 -2 2 45 153 105 337 l109 333 83 83 c46 46 84 82 86 81 1 -2 -51
-160 -116 -353z m-26027 16 l86 -124 -30 -30 c-36 -37 -28 -44 -140 122 l-83
123 28 29 c35 36 26 44 139 -120z m196 -286 l93 -136 -31 -31 c-17 -17 -33
-29 -35 -26 -2 2 -45 64 -96 138 l-91 135 27 28 c15 15 30 28 34 28 3 0 48
-61 99 -136z m25579 -476 l-120 -353 -71 -72 c-40 -40 -74 -71 -76 -69 -2 2
49 162 113 354 l116 350 77 71 c42 39 78 70 79 71 1 0 -52 -159 -118 -352z
m-25374 176 l95 -138 -30 -31 -31 -30 -22 30 c-12 16 -56 80 -98 141 l-77 112
31 30 c17 17 32 30 34 28 2 -2 46 -66 98 -142z m200 -291 c48 -71 89 -133 91
-138 3 -6 -9 -24 -26 -40 -26 -25 -33 -27 -40 -15 -5 8 -47 71 -94 139 l-86
125 27 28 c15 15 30 28 34 28 4 0 46 -57 94 -127z m191 -285 c42 -68 83 -133
91 -144 12 -19 11 -24 -22 -48 l-35 -27 -90 138 -89 138 31 32 c18 18 33 33
34 33 1 0 37 -55 80 -122z m24743 -344 l-100 -329 -80 -80 c-44 -44 -78 -73
-75 -65 3 8 51 161 106 340 l101 325 71 72 c40 40 73 71 75 70 1 -2 -42 -152
-98 -333z m-24550 38 c41 -64 81 -126 87 -137 11 -17 9 -25 -15 -54 l-29 -35
-87 135 c-48 73 -90 140 -93 148 -5 12 42 61 58 61 3 0 39 -53 79 -118z m202
-314 c46 -72 87 -137 91 -144 5 -7 -5 -22 -26 -37 l-33 -26 -87 134 c-47 74
-86 137 -86 140 0 12 41 65 49 65 5 0 46 -59 92 -132z m24129 -444 l-101 -329
-76 -77 c-42 -43 -78 -76 -80 -74 -2 2 42 151 98 332 l102 329 75 77 c42 43
77 76 79 74 2 -1 -42 -151 -97 -332z m-23926 125 l89 -140 -29 -30 c-34 -36
-26 -44 -134 130 l-84 134 30 23 c16 13 31 24 34 24 3 0 45 -63 94 -141z m201
-322 l78 -129 -31 -31 c-17 -17 -33 -29 -36 -26 -2 2 -42 68 -89 145 l-85 142
31 30 c28 28 32 30 42 14 6 -9 47 -75 90 -145z m179 -294 l87 -143 -27 -35
c-14 -19 -29 -35 -33 -35 -3 0 -45 67 -93 148 l-87 147 31 32 c17 18 32 32 33
30 1 -1 41 -66 89 -144z m23381 -49 c-25 -82 -69 -228 -96 -324 l-50 -175 -77
-77 c-42 -43 -77 -76 -79 -74 -2 1 39 148 91 326 l94 322 78 79 c43 43 79 77
81 75 2 -1 -17 -70 -42 -152z m-23137 -441 l-35 -34 -85 143 -86 143 30 38 30
38 90 -147 90 -147 -34 -34z m136 -135 l84 -142 -31 -38 c-37 -47 -32 -51
-120 104 -36 64 -72 126 -79 137 -11 18 -9 24 17 51 16 16 32 30 37 30 4 0 45
-64 92 -142z m22742 -314 l-95 -329 -72 -67 c-40 -38 -74 -66 -76 -64 -2 2 37
147 88 322 l91 319 76 77 c42 43 77 76 79 74 2 -1 -40 -151 -91 -332z m-22557
-14 l80 -145 -31 -32 c-19 -20 -36 -29 -41 -24 -5 5 -44 72 -87 148 l-78 138
30 38 c17 21 34 35 39 30 4 -4 44 -73 88 -153z m177 -318 l82 -147 -35 -35
c-20 -19 -37 -30 -39 -25 -3 6 -40 73 -84 150 l-79 140 32 33 c17 17 33 32 36
32 4 0 43 -67 87 -148z m22179 -361 l-92 -319 -79 -86 c-43 -47 -79 -86 -80
-86 -2 0 56 213 122 440 l65 225 77 72 c42 40 78 73 78 73 1 0 -40 -144 -91
-319z m-21994 27 l70 -128 -27 -35 c-14 -19 -29 -35 -33 -35 -3 1 -43 67 -88
148 l-82 147 32 33 c38 40 29 48 128 -130z m169 -307 l83 -153 -35 -35 -35
-35 -81 153 -80 154 30 38 c17 21 31 37 33 35 1 -2 39 -72 85 -157z m21710
-123 c-5 -18 -43 -163 -85 -323 l-76 -290 -80 -80 c-53 -53 -79 -72 -74 -57 3
12 42 156 86 318 l79 296 76 84 c42 46 78 84 79 84 2 0 -1 -15 -5 -32z
m-21536 -202 c42 -79 76 -148 76 -152 0 -5 -16 -21 -34 -36 l-35 -28 -55 103
c-30 56 -65 123 -77 149 l-23 48 29 30 c16 16 32 30 35 30 4 0 41 -65 84 -144z
m179 -337 l76 -146 -35 -34 c-41 -40 -26 -57 -131 143 l-72 137 37 31 c20 16
39 26 43 22 3 -4 40 -73 82 -153z m21176 -151 c-4 -18 -42 -161 -83 -317 l-75
-285 -78 -78 c-42 -42 -78 -76 -80 -74 -1 1 35 143 81 316 l84 313 78 78 c43
44 79 79 80 79 2 0 -2 -15 -7 -32z m-21006 -168 l78 -150 -31 -40 c-17 -22
-33 -40 -35 -40 -2 0 -40 70 -85 156 l-82 156 33 34 c18 19 35 34 38 34 4 0
41 -68 84 -150z m210 -526 c-21 -18 -41 -29 -44 -26 -4 4 -38 72 -76 153 l-70
145 36 43 36 44 78 -163 78 -164 -38 -32z m20623 29 c-4 -9 -41 -150 -82 -313
l-76 -295 -76 -77 c-42 -43 -77 -76 -79 -75 -1 2 31 140 73 307 l75 305 82 83
c45 45 83 82 85 82 2 0 1 -8 -2 -17z m-20498 -174 l72 -151 -31 -39 c-17 -22
-33 -39 -35 -39 -2 0 -40 72 -84 159 l-80 160 37 30 c21 17 40 31 44 31 3 0
38 -68 77 -151z m164 -338 l76 -159 -39 -32 -39 -31 -73 153 -73 153 29 38
c17 20 33 37 37 37 3 0 40 -72 82 -159z m20163 -153 c-2 -7 -36 -143 -75 -303
l-71 -290 -79 -85 -79 -84 9 39 c5 22 39 161 75 310 l65 269 77 78 c43 43 79
78 80 78 1 0 0 -6 -2 -12z m-20000 -185 l76 -157 -38 -32 -38 -32 -77 156 -76
157 36 33 c19 17 37 32 39 32 1 0 37 -71 78 -157z m163 -350 l70 -151 -38 -37
-37 -36 -76 166 -75 165 36 30 c20 16 40 26 44 22 4 -4 38 -75 76 -159z
m19603 -421 l-76 -312 -76 -76 -76 -76 73 307 74 307 77 84 c42 47 77 83 78
82 2 -2 -31 -144 -74 -316z m-19452 89 l71 -154 -32 -39 c-17 -22 -34 -36 -39
-31 -4 4 -39 76 -77 158 l-70 150 36 37 c20 21 37 36 38 35 2 -1 35 -72 73
-156z m160 -350 l71 -155 -37 -38 -36 -37 -73 160 -74 161 32 39 c17 22 35 36
39 32 4 -5 40 -78 78 -162z m19177 -207 c-13 -55 -43 -187 -66 -294 l-42 -195
-66 -67 c-36 -37 -68 -66 -70 -63 -2 2 24 133 58 292 l61 288 72 72 c39 40 73
71 74 69 2 -2 -7 -48 -21 -102z m-19021 -139 l68 -156 -39 -40 -40 -40 -68
166 -69 166 33 34 c18 19 36 32 40 30 4 -2 38 -75 75 -160z m147 -347 l68
-163 -37 -37 c-20 -21 -40 -35 -44 -30 -4 4 -36 78 -72 164 l-64 156 36 36
c20 20 38 36 41 36 3 0 35 -73 72 -162z m18752 -65 c-2 -10 -31 -144 -65 -298
l-60 -280 -66 -67 c-37 -37 -68 -66 -70 -64 -2 1 25 133 58 292 l62 289 71 73
c39 39 71 72 72 72 1 0 0 -8 -2 -17z m-18600 -297 l67 -160 -38 -38 c-20 -21
-40 -35 -44 -30 -4 4 -37 79 -73 167 l-66 159 37 38 c20 21 40 35 44 30 3 -4
36 -79 73 -166z m145 -349 c34 -81 61 -151 61 -155 0 -4 -17 -25 -38 -46 l-39
-37 -67 162 -66 163 37 38 c20 21 40 35 44 30 4 -4 34 -73 68 -155z m18255
-277 l-64 -295 -67 -67 c-37 -37 -68 -66 -69 -65 -1 1 26 134 61 296 l63 293
68 69 c37 38 69 67 70 66 1 -1 -26 -135 -62 -297z m-18115 -75 l64 -166 -38
-39 c-21 -22 -40 -38 -43 -36 -2 2 -32 78 -67 168 l-64 163 37 38 c20 20 39
37 42 37 3 0 34 -74 69 -165z m139 -358 c34 -89 62 -167 62 -173 0 -6 -17 -25
-39 -42 l-38 -31 -66 167 -65 167 36 38 c20 20 39 37 42 37 3 0 33 -73 68
-163z m17846 -187 c-30 -151 -54 -283 -54 -292 0 -15 -130 -142 -138 -134 -2
2 22 132 53 288 l57 283 66 67 c36 37 67 66 68 65 1 -1 -22 -126 -52 -277z
m-17705 -177 l63 -162 -33 -41 c-18 -22 -35 -40 -39 -40 -4 0 -37 75 -73 168
l-66 167 42 37 c22 20 42 36 43 35 0 -1 29 -75 63 -164z m17583 -455 l-54
-283 -72 -73 -73 -74 58 294 57 293 69 62 c37 34 68 63 69 63 0 0 -24 -127
-54 -282z m-17443 90 l63 -173 -39 -32 c-21 -18 -40 -33 -43 -33 -3 0 -25 55
-48 123 -24 67 -51 141 -60 163 l-15 42 32 41 c18 23 36 41 40 41 4 0 35 -78
70 -172z m137 -384 l55 -157 -38 -39 c-26 -26 -39 -34 -44 -26 -5 7 -34 86
-65 177 l-57 164 39 33 c31 26 40 30 47 19 4 -8 32 -85 63 -171z m17185 -331
l-56 -293 -70 -70 c-38 -38 -70 -68 -72 -66 -2 2 22 133 53 292 l57 289 70 72
c39 40 72 71 73 70 1 -1 -24 -134 -55 -294z m-17057 -32 l58 -164 -38 -38
c-27 -27 -40 -35 -45 -27 -4 7 -32 85 -63 172 l-56 160 37 38 c20 21 40 35 43
30 4 -4 33 -81 64 -171z m131 -369 l58 -164 -40 -40 -40 -40 -61 174 -62 173
37 37 c20 21 40 35 44 30 3 -4 32 -81 64 -170z m16812 -208 l-48 -277 -67 -73
c-36 -40 -68 -72 -69 -70 -2 2 17 127 43 277 l46 274 71 73 c39 39 72 72 72
72 1 0 -21 -124 -48 -276z m-16684 -169 l55 -170 -41 -42 c-22 -24 -42 -42
-43 -40 -1 1 -27 83 -58 181 l-57 179 38 39 c20 21 40 35 44 30 4 -4 32 -83
62 -177z m16577 -446 l-51 -284 -62 -63 c-34 -34 -63 -58 -65 -53 -2 5 17 129
43 276 l45 267 67 74 c36 41 67 73 69 71 2 -2 -19 -131 -46 -288z m-16443
-136 c-23 -24 -42 -41 -43 -40 -2 2 -28 79 -57 172 l-55 170 42 43 41 43 56
-173 56 -173 -40 -42z m123 -388 c-22 -21 -41 -37 -44 -35 -2 3 -29 84 -60
180 l-55 175 41 42 42 43 58 -183 58 -182 -40 -40z m16211 -93 l-48 -274 -65
-65 -65 -65 47 282 47 281 64 65 c35 35 65 61 66 57 1 -5 -19 -131 -46 -281z
m-16106 -73 l54 -174 -42 -37 c-23 -20 -45 -34 -48 -30 -4 4 -23 63 -42 132
-20 69 -43 143 -50 165 l-15 40 41 42 c22 24 42 41 44 39 2 -2 28 -82 58 -177z
m124 -605 c-37 -38 -44 -42 -50 -27 -3 10 -28 94 -55 187 l-48 169 44 38 45
38 53 -181 54 -181 -43 -43z m15911 259 c-10 -60 -28 -182 -41 -272 l-23 -164
-64 -73 c-36 -41 -66 -73 -68 -71 -1 1 17 127 41 281 l43 279 63 63 c35 35 64
64 65 64 0 0 -7 -48 -16 -107z m-15804 -436 l48 -167 -45 -46 -45 -45 -52 183
-52 183 42 42 c29 30 44 39 49 31 4 -7 29 -88 55 -181z m15692 -322 l-39 -270
-71 -70 c-41 -41 -68 -62 -65 -50 3 11 23 133 43 270 l38 250 64 73 c36 40 66
71 67 70 2 -2 -15 -124 -37 -273z m-15584 -52 c25 -89 46 -168 46 -175 0 -7
-19 -31 -42 -55 l-42 -43 -52 183 -52 182 41 42 c23 24 44 40 48 35 4 -4 28
-80 53 -169z m108 -401 l47 -177 -42 -42 c-22 -24 -44 -40 -48 -35 -4 4 -28
86 -53 182 l-45 175 41 42 c23 24 44 40 47 37 3 -3 27 -85 53 -182z m15389
-137 l-40 -269 -67 -68 c-38 -37 -69 -66 -70 -65 -1 1 17 125 40 275 l42 273
64 64 c35 35 65 63 67 61 2 -1 -15 -124 -36 -271z m-15286 -253 l48 -183 -44
-45 c-29 -30 -45 -40 -50 -32 -3 7 -26 90 -50 185 l-44 172 44 45 c25 25 45
45 46 43 1 -1 23 -84 50 -185z m15201 -343 l-35 -263 -63 -63 c-35 -35 -64
-58 -66 -51 -1 7 13 130 32 272 l34 259 64 64 c34 35 64 59 66 55 1 -5 -13
-128 -32 -273z m-15096 -67 l43 -173 -44 -45 -43 -44 -49 186 -48 187 42 43
c29 30 45 40 50 32 3 -7 25 -91 49 -186z m99 -401 l42 -175 -45 -45 c-33 -32
-47 -41 -50 -30 -3 8 -23 93 -45 189 l-39 175 41 43 c28 29 43 38 48 30 4 -7
25 -91 48 -187z m14941 42 c-10 -71 -25 -189 -35 -265 l-18 -136 -69 -69 c-56
-55 -68 -63 -64 -43 3 14 20 133 36 265 l31 240 67 68 c36 37 67 67 68 67 0 0
-7 -57 -16 -127z m-14850 -437 l42 -188 -43 -44 c-23 -24 -45 -41 -48 -38 -3
3 -24 88 -47 189 l-41 184 46 45 c25 25 46 44 47 43 1 -1 20 -87 44 -191z
m14756 -280 l-34 -259 -64 -64 c-34 -35 -64 -60 -65 -56 -2 5 12 125 31 267
l34 259 64 64 c34 35 64 60 65 56 2 -5 -12 -125 -31 -267z m-14665 -130 l41
-188 -43 -44 c-38 -39 -45 -42 -51 -27 -10 23 -78 332 -78 352 0 14 80 104 86
98 2 -2 22 -87 45 -191z m14608 -303 c-9 -76 -23 -197 -30 -270 l-12 -132 -64
-63 c-34 -34 -63 -56 -63 -48 0 8 12 127 26 265 l26 250 66 68 c37 37 67 67
67 67 1 0 -6 -62 -16 -137z m-14515 -122 l36 -172 -42 -50 c-23 -27 -45 -46
-48 -42 -4 5 -24 93 -45 196 l-38 188 44 45 c52 53 45 67 93 -165z m76 -641
c-25 -21 -47 -37 -49 -34 -2 2 -20 86 -41 186 l-36 183 45 54 46 54 40 -203
40 -202 -45 -38z m14365 65 l-26 -248 -61 -68 c-34 -38 -63 -67 -65 -65 -2 1
9 117 23 257 l26 254 61 62 c33 34 62 61 64 59 2 -2 -8 -115 -22 -251z
m-14275 -250 c17 -88 33 -167 36 -176 3 -11 -13 -31 -44 -58 l-49 -41 -39 196
-39 196 45 39 c39 34 46 37 52 21 4 -9 21 -89 38 -177z m14215 -326 l-25 -244
-66 -65 c-63 -61 -66 -63 -61 -35 3 17 15 134 28 260 l23 230 60 69 c49 55 62
65 64 49 2 -11 -8 -130 -23 -264z m-14132 -91 l36 -193 -48 -49 -48 -48 -7 48
c-4 27 -21 119 -38 204 l-30 155 44 37 c23 21 45 38 48 38 3 0 22 -87 43 -192z
m14078 -450 l-26 -258 -60 -60 c-32 -33 -60 -58 -62 -56 -4 4 34 436 42 481 4
19 28 53 67 92 34 34 62 61 63 60 1 -1 -10 -118 -24 -259z m-14003 25 l33
-197 -49 -49 -49 -49 -33 202 -32 202 43 44 c24 24 46 44 49 44 3 0 20 -89 38
-197z m56 -679 l-49 -57 -34 207 -34 208 49 49 49 50 34 -200 34 -199 -49 -58z
m13896 99 l-21 -248 -62 -62 c-33 -34 -62 -61 -63 -60 -1 1 8 116 20 255 l23
253 58 59 c32 33 61 58 63 56 2 -3 -6 -116 -18 -253z m-13805 -296 l29 -177
-49 -50 c-27 -27 -50 -49 -51 -47 -1 1 -17 89 -34 195 l-31 192 47 56 c57 67
49 83 89 -169z m13755 -275 l-21 -237 -64 -64 -64 -64 5 39 c3 21 13 140 24
263 l19 225 58 58 c50 50 58 56 61 38 2 -11 -6 -127 -18 -258z m-13691 -149
l29 -198 -52 -53 -52 -53 -27 188 c-15 103 -27 199 -27 213 0 25 92 130 98
111 2 -5 16 -98 31 -208z m13646 -374 l-22 -247 -59 -66 c-32 -37 -60 -63 -62
-57 -2 5 6 119 18 253 l21 243 61 62 c34 34 63 61 63 60 1 -1 -8 -113 -20
-248z m-13584 -66 l28 -198 -52 -47 c-29 -25 -53 -46 -54 -45 0 1 -14 91 -29
200 l-27 198 48 49 c27 27 51 48 53 45 2 -2 17 -93 33 -202z m13544 -479 l-16
-249 -60 -60 -59 -60 0 55 c1 30 7 142 14 247 l14 193 58 65 c31 36 59 64 61
62 2 -2 -4 -116 -12 -253z m-13483 38 l27 -197 -52 -53 -53 -53 -29 213 -28
212 48 43 c27 23 51 40 54 37 3 -2 17 -93 33 -202z m55 -445 l22 -202 -52 -47
c-29 -25 -53 -46 -54 -45 -1 1 -11 94 -24 205 l-22 204 49 49 c26 27 50 46 53
43 3 -3 15 -96 28 -207z m13396 -127 l-15 -245 -65 -65 -65 -65 6 65 c3 36 11
148 17 250 l11 185 61 62 c33 34 62 61 63 60 1 -1 -5 -112 -13 -247z m-13347
-338 l18 -192 -49 -50 c-27 -27 -50 -49 -51 -47 -1 1 -13 98 -25 216 l-24 214
50 43 c42 38 50 42 56 27 3 -10 15 -105 25 -211z m13315 -189 l-13 -248 -64
-65 -64 -65 0 45 c0 25 7 137 15 249 l14 205 63 63 c34 35 63 63 63 63 0 0 -6
-111 -14 -247z m-13271 -247 l22 -209 -49 -49 -48 -49 -6 38 c-4 21 -15 116
-25 211 l-18 172 49 50 c27 27 50 48 51 47 2 -2 13 -97 24 -211z m13240 -293
l-12 -238 -65 -65 -64 -65 5 45 c3 25 8 135 11 245 l7 200 61 62 c33 34 63 61
65 58 2 -2 -1 -111 -8 -242z m-13197 -164 l17 -211 -46 -54 c-26 -30 -49 -53
-51 -50 -3 2 -13 100 -22 218 l-18 213 46 48 c25 26 48 47 51 47 4 0 14 -95
23 -211z m13174 -356 l-10 -242 -64 -63 -65 -63 6 45 c3 25 8 135 11 245 l7
200 61 62 c33 34 62 61 62 60 1 -1 -2 -111 -8 -244z m-13136 -111 l17 -207
-52 -53 -51 -53 -17 212 -17 212 47 53 c25 30 48 51 51 48 3 -3 13 -98 22
-212z m13111 -470 l-9 -183 -62 -62 -62 -62 5 35 c3 19 8 130 11 245 l7 210
56 58 57 58 3 -58 c1 -32 -1 -140 -6 -241z m-13071 -36 l12 -179 -49 -43 c-27
-23 -49 -42 -50 -41 -1 1 -10 98 -19 215 l-18 214 49 49 49 50 6 -43 c4 -24
12 -124 20 -222z m13050 -444 l-11 -227 -56 -55 -56 -55 6 240 7 240 57 58
c41 41 58 53 60 42 2 -9 -1 -118 -7 -243z m-13021 19 l11 -215 -55 -55 -56
-56 0 55 c-1 30 -5 132 -10 225 l-9 170 52 47 c28 26 52 46 53 45 1 -1 7 -98
14 -216z m25 -510 l7 -197 -56 -48 -56 -48 -1 74 c0 40 -4 141 -8 223 l-9 150
52 53 51 53 7 -32 c3 -18 9 -120 13 -228z m12979 -19 l-7 -241 -54 -53 -55
-53 4 242 3 242 54 55 c30 31 57 54 59 52 2 -2 0 -112 -4 -244z m-12954 -442
l10 -204 -57 -58 -58 -59 -11 228 -10 228 55 53 c43 40 56 48 58 35 1 -10 7
-110 13 -223z m12943 -66 l-6 -230 -56 -62 -56 -62 3 237 3 238 56 57 c31 32
58 56 60 55 1 -2 0 -107 -4 -233z m-12924 -514 l1 -106 -59 -58 -58 -58 -6
224 -5 223 57 58 56 58 6 -118 c4 -65 7 -165 8 -223z m12913 3 l-5 -241 -56
-56 -57 -56 4 237 5 238 55 63 c30 34 56 61 57 60 2 -2 0 -112 -3 -245z
m-12903 -483 l1 -126 -59 -58 -59 -58 -4 233 -5 234 56 58 56 58 6 -108 c4
-59 7 -164 8 -233z m12893 -25 l-4 -230 -54 -60 -54 -60 0 235 0 234 57 58
c31 32 57 56 58 55 0 -1 -1 -105 -3 -232z m-12883 -450 l1 -141 -59 -58 -60
-59 -3 229 -3 229 55 58 55 58 6 -88 c4 -48 7 -151 8 -228z m12826 -345 l-55
-55 0 233 0 234 53 60 52 60 3 -238 2 -238 -55 -56z m-12887 -357 l-63 -63 3
238 3 237 57 58 57 58 3 -233 2 -232 -62 -63z m12951 37 l1 -116 -60 -59 -60
-59 0 234 0 234 53 54 52 53 6 -113 c4 -62 7 -165 8 -228z m-12897 -251 l-3
-235 -59 -59 -60 -59 0 234 0 234 62 63 c34 34 62 61 62 60 1 -1 0 -108 -2
-238z m12838 -424 l-60 -60 0 235 0 234 58 59 57 58 3 -233 2 -232 -60 -61z
m-12843 -82 l-6 -237 -61 -60 -61 -61 7 240 6 240 56 58 c31 31 58 57 61 57 2
0 1 -107 -2 -237z m12853 -406 l-57 -59 -7 227 -8 228 59 59 58 59 6 -228 7
-228 -58 -58z m-12871 -113 l-11 -239 -59 -60 -59 -60 1 60 c0 33 4 142 8 243
l8 183 58 59 c32 33 60 58 62 57 1 -2 -2 -111 -8 -243z m12882 -377 l-58 -59
-7 228 -7 228 58 58 58 59 7 -228 7 -228 -58 -58z m-12905 -143 l-11 -241 -57
-64 -57 -64 0 35 c0 19 4 131 9 249 l9 214 57 58 c32 32 58 57 59 56 1 -1 -4
-110 -9 -243z m12916 -347 l-59 -59 -6 229 -7 228 58 58 57 58 7 -228 8 -228
-58 -58z m-12945 -221 l-15 -208 -56 -57 -56 -56 0 50 c1 28 7 136 14 242 l13
191 54 62 54 63 3 -39 c1 -22 -4 -133 -11 -248z m12961 -268 c-29 -26 -56 -48
-59 -48 -3 0 -9 100 -12 223 l-6 222 57 58 57 58 8 -233 9 -233 -54 -47z
m-12994 -234 l-16 -249 -56 -57 c-31 -32 -57 -56 -59 -54 -2 1 4 115 13 252
l16 249 56 57 c31 32 57 56 59 54 2 -1 -4 -115 -13 -252z m13056 22 l12 -219
-55 -55 -54 -54 -6 73 c-4 41 -10 144 -13 229 l-7 154 54 48 c29 26 54 46 55
45 1 -1 8 -101 14 -221z m25 -510 l7 -191 -56 -55 -56 -54 0 44 c0 25 -5 126
-10 225 l-10 179 52 53 53 54 6 -32 c4 -17 10 -117 14 -223z m-13109 67 c-4
-71 -11 -179 -17 -241 l-9 -114 -57 -64 c-31 -35 -58 -62 -61 -59 -2 2 1 57 7
122 7 65 16 176 20 247 l9 128 53 54 c29 30 55 54 58 54 2 0 1 -57 -3 -127z
m13086 -780 l-57 -53 -11 218 -11 217 56 58 56 58 12 -223 12 -223 -57 -52z
m-13118 365 c-2 -13 -13 -129 -25 -258 l-22 -235 -56 -63 c-31 -35 -57 -58
-59 -52 -3 7 6 121 18 254 l23 241 60 68 c33 37 61 67 62 67 1 0 1 -10 -1 -22z
m13186 -572 l12 -218 -54 -55 -53 -54 -6 63 c-4 35 -10 137 -14 227 l-8 165
54 47 c30 26 55 47 56 46 1 -1 7 -100 13 -221z m-13261 -228 l-23 -253 -63
-65 -64 -65 5 35 c3 19 15 136 27 259 l20 224 56 64 c31 34 58 61 61 59 2 -3
-6 -119 -19 -258z m13290 -257 l12 -204 -55 -56 -56 -56 -1 40 c0 22 -6 121
-13 220 l-14 180 51 52 c34 35 53 49 58 40 3 -6 11 -104 18 -216z m-13323 -88
c-3 -27 -17 -145 -32 -263 l-26 -215 -61 -63 c-34 -34 -63 -59 -64 -55 -2 5
12 125 31 267 l35 259 58 59 c31 32 59 58 61 58 2 0 1 -21 -2 -47z m13353
-377 l13 -209 -56 -56 -56 -56 -1 45 c0 25 -6 124 -13 220 l-13 175 51 52 c27
29 53 50 57 45 3 -4 12 -101 18 -216z m-13450 -415 l-32 -260 -69 -68 c-56
-55 -68 -63 -64 -43 3 14 19 135 37 270 l31 245 61 62 c33 34 63 61 65 59 2
-2 -11 -121 -29 -265z m13481 -60 l12 -213 -54 -55 -55 -54 -14 225 -14 226
50 50 c27 27 52 46 56 42 3 -4 12 -103 19 -221z m-13540 -412 c-11 -90 -27
-208 -36 -263 l-15 -98 -67 -75 c-36 -41 -68 -70 -70 -65 -1 5 11 96 27 203
17 107 33 226 37 264 7 69 8 71 72 138 36 37 67 65 69 63 2 -2 -5 -77 -17
-167z m13534 -310 c-41 -41 -50 -46 -55 -32 -4 10 -12 105 -20 211 l-13 193
55 55 54 55 14 -217 13 -216 -48 -49z m71 -195 l18 -215 -48 -49 c-27 -27 -51
-47 -53 -45 -3 3 -13 98 -23 212 l-18 208 51 52 c29 29 53 53 54 53 0 0 9 -97
19 -216z m-13705 -180 l-41 -269 -66 -67 c-37 -37 -68 -66 -70 -64 -2 2 14
121 36 265 l40 262 67 74 c37 41 69 73 71 71 2 -2 -14 -125 -37 -272z m13746
-288 l18 -219 -49 -43 c-27 -23 -52 -41 -54 -39 -2 3 -12 98 -22 212 l-18 208
51 52 c29 29 53 51 54 50 1 -1 10 -100 20 -221z m-13839 -320 l-42 -269 -74
-66 c-41 -36 -72 -58 -68 -49 3 9 25 135 47 280 l42 263 66 68 c37 37 68 62
69 55 2 -7 -16 -134 -40 -282z m13879 -139 l18 -207 -49 -50 c-27 -27 -51 -47
-53 -45 -3 3 -13 98 -24 212 l-18 208 52 47 c29 26 53 46 54 45 2 -1 10 -96
20 -210z m-13932 -184 c-2 -10 -26 -139 -53 -288 l-50 -270 -68 -62 c-37 -34
-69 -60 -71 -59 -1 2 20 129 48 282 l51 279 72 67 c40 38 73 68 74 68 0 0 -1
-8 -3 -17z m13975 -293 l18 -195 -51 -53 -51 -53 -7 53 c-4 29 -14 127 -22
218 l-16 164 52 54 c48 48 53 51 56 30 1 -13 11 -111 21 -218z m45 -437 l23
-198 -45 -52 c-25 -29 -49 -53 -52 -53 -3 0 -16 93 -29 206 l-23 206 48 49
c26 27 50 47 52 45 2 -3 14 -93 26 -203z m-14184 -160 l-51 -278 -75 -75 c-59
-59 -74 -70 -69 -50 3 14 28 147 55 295 l49 270 68 62 c36 35 68 61 71 59 2
-2 -20 -129 -48 -283z m14236 -290 l23 -208 -46 -47 c-26 -27 -50 -45 -54 -40
-3 4 -16 96 -28 205 l-22 198 47 55 c26 30 49 52 52 50 2 -3 15 -99 28 -213z
m-14359 -331 l-63 -293 -76 -76 -77 -76 9 39 c5 21 34 156 65 299 l56 260 71
72 c40 40 73 71 75 70 1 -2 -26 -135 -60 -295z m14412 -126 l22 -200 -50 -50
c-59 -59 -51 -77 -81 183 l-21 185 48 48 c26 26 50 45 53 40 4 -4 17 -97 29
-206z m-14549 -513 l-61 -288 -72 -72 c-39 -40 -72 -71 -74 -69 -2 2 24 133
58 292 l61 289 71 72 c39 40 73 71 75 68 2 -2 -24 -133 -58 -292z m14599 71
l23 -206 -48 -49 c-26 -27 -49 -47 -51 -46 -1 2 -14 95 -28 207 l-25 205 47
47 c26 27 50 48 53 48 3 0 16 -93 29 -206z m56 -453 l26 -194 -48 -49 c-58
-59 -53 -71 -84 180 l-23 183 50 50 c27 27 50 44 51 37 1 -7 14 -100 28 -207z
m-14801 -263 l-75 -305 -79 -78 -78 -78 78 313 78 313 73 73 c40 40 74 72 76
70 1 -1 -31 -140 -73 -308z m14858 -170 l26 -202 -46 -53 c-25 -29 -48 -51
-50 -48 -3 2 -17 96 -32 207 l-27 203 46 48 c25 26 48 47 51 47 3 0 17 -91 32
-202z m-14977 -315 c-19 -76 -54 -219 -79 -318 l-45 -180 -73 -67 c-40 -36
-74 -65 -75 -64 -1 1 32 139 74 306 l76 305 76 78 c41 42 76 77 77 77 1 0 -13
-62 -31 -137z m15035 -131 l26 -197 -45 -52 c-24 -29 -47 -50 -50 -47 -3 3
-18 94 -32 202 l-26 197 45 53 c25 29 47 50 51 47 3 -3 17 -95 31 -203z m60
-458 l23 -182 -43 -51 c-24 -28 -47 -48 -51 -44 -4 5 -19 95 -33 202 l-25 194
46 54 c57 66 51 80 83 -173z m-15300 -225 c-39 -145 -77 -286 -85 -314 -12
-41 -27 -62 -87 -117 -40 -37 -74 -65 -75 -64 -2 2 35 144 82 317 l84 314 72
67 c40 38 74 66 76 65 2 -2 -29 -123 -67 -268z m15360 -198 l32 -204 -49 -49
-49 -49 -31 202 -31 203 45 53 c25 29 47 52 48 51 2 -2 17 -95 35 -207z
m-15496 -298 c-13 -49 -53 -191 -88 -317 l-64 -228 -76 -77 -76 -76 19 70 c10
39 49 183 86 320 l67 250 76 73 c42 39 77 72 78 72 1 0 -9 -39 -22 -87z
m15547 -386 c-56 -58 -49 -71 -86 177 l-27 178 48 49 49 50 31 -203 32 -203
-47 -48z m84 -200 l29 -188 -44 -44 c-24 -25 -47 -42 -51 -37 -6 7 -59 342
-59 377 0 26 82 110 91 93 3 -7 19 -98 34 -201z m-15886 -308 c-51 -162 -96
-310 -101 -329 -6 -22 -40 -68 -93 -125 l-84 -90 23 75 c12 41 60 197 106 345
l83 270 76 77 c41 43 76 76 78 74 2 -1 -38 -135 -88 -297z m15951 -114 l30
-200 -48 -48 -48 -48 -31 203 -32 203 46 47 c26 26 48 46 49 45 2 -1 17 -92
34 -202z m69 -431 l34 -195 -44 -45 c-38 -39 -45 -42 -51 -27 -4 10 -21 99
-38 197 l-31 179 42 43 c24 24 46 44 49 44 3 0 20 -88 39 -196z m-16154 114
c-3 -7 -50 -158 -105 -336 l-100 -323 -82 -90 c-45 -49 -83 -89 -84 -89 -2 0
7 30 20 68 13 37 61 189 107 337 l83 270 80 88 c45 48 82 87 83 87 1 0 0 -6
-2 -12z m16230 -537 l35 -192 -47 -55 -48 -55 -36 203 -36 203 45 47 c25 26
47 46 49 44 2 -1 19 -89 38 -195z m-16570 -532 l-116 -344 -84 -85 -85 -85
117 346 118 345 79 87 c44 48 81 86 83 84 2 -2 -49 -159 -112 -348z m16649 96
l33 -180 -46 -48 c-39 -41 -47 -45 -53 -30 -4 10 -21 96 -38 192 l-30 174 48
56 c38 45 48 52 50 36 2 -11 18 -101 36 -200z m75 -410 c17 -99 31 -187 31
-197 0 -9 -22 -34 -48 -57 l-49 -40 -32 187 c-18 103 -34 192 -36 197 -4 13
87 107 95 97 4 -4 21 -88 39 -187z m-16943 -332 c-155 -463 -147 -445 -245
-545 -47 -48 -86 -86 -87 -85 -2 1 26 79 61 172 36 93 92 252 126 354 l61 186
81 83 c45 45 82 82 84 82 1 0 -36 -111 -81 -247z m17025 -117 l33 -179 -49
-43 -50 -43 -39 196 -39 196 49 43 c42 37 50 41 56 26 4 -9 21 -98 39 -196z
m80 -403 l38 -188 -46 -42 c-26 -24 -50 -39 -54 -35 -3 4 -23 90 -43 192 l-37
185 48 42 c26 23 50 40 52 38 2 -3 21 -89 42 -192z m-17430 -381 l-137 -373
-89 -89 c-49 -49 -90 -88 -92 -86 -2 1 60 171 138 377 l142 374 85 87 c47 48
87 86 88 85 2 -2 -59 -170 -135 -375z m17512 -34 l37 -193 -49 -49 -49 -49
-11 54 c-6 30 -24 120 -40 202 l-28 148 46 39 c25 22 49 39 52 40 3 0 22 -87
42 -192z m71 -659 l-50 -49 -38 196 -39 195 49 50 49 50 39 -196 39 -197 -49
-49z m-17790 135 c-24 -65 -93 -237 -151 -381 l-106 -262 -99 -98 c-68 -67
-96 -90 -89 -71 5 14 76 190 157 390 l147 363 90 92 c50 51 92 91 94 90 1 -2
-18 -57 -43 -123z m17885 -312 l38 -191 -47 -46 -48 -47 -17 73 c-9 41 -27
128 -41 194 l-24 119 47 48 c26 26 48 46 50 44 2 -1 20 -89 42 -194z m88 -410
l41 -187 -46 -48 c-39 -40 -47 -44 -53 -30 -3 10 -23 96 -44 192 l-37 173 43
44 c24 24 46 44 49 44 3 0 24 -84 47 -188z m-18363 -248 c-58 -142 -132 -323
-165 -401 l-61 -142 -98 -91 -99 -91 59 134 c32 74 107 253 165 398 l107 264
96 97 c53 54 97 96 99 94 1 -1 -45 -119 -103 -262z m18453 -161 l42 -188 -46
-47 c-26 -26 -48 -46 -49 -45 -2 2 -22 87 -45 191 l-41 188 43 44 c24 24 46
44 49 44 3 0 25 -84 47 -187z m86 -645 c-26 -26 -48 -46 -49 -45 -1 1 -21 87
-44 191 l-42 189 48 48 48 49 43 -192 43 -192 -47 -48z m-18802 180 c-5 -13
-88 -201 -185 -418 l-175 -395 -88 -82 c-48 -45 -89 -81 -90 -79 -1 1 78 186
176 412 l179 409 93 88 c51 48 94 87 96 87 1 0 -1 -10 -6 -22z m18899 -356
l42 -194 -48 -49 -48 -49 -44 196 -44 197 48 48 c26 27 49 48 50 46 1 -1 21
-89 44 -195z m89 -397 c23 -93 44 -177 47 -186 3 -11 -12 -30 -44 -58 l-50
-41 -45 183 -46 182 46 47 c26 26 48 47 49 45 1 -1 21 -78 43 -172z m-19388
-147 c-38 -97 -392 -841 -410 -862 -9 -10 -51 -50 -94 -89 -73 -66 -78 -68
-64 -36 8 19 101 216 206 439 l191 405 87 83 c48 45 88 82 90 82 1 0 -1 -10
-6 -22z m19513 -360 l23 -96 -47 -47 -48 -47 -46 193 -47 194 48 42 48 42 23
-92 c13 -51 34 -136 46 -189z m77 -312 l46 -185 -48 -47 -48 -47 -7 29 c-3 16
-24 101 -46 188 l-39 159 43 44 c23 23 45 43 48 43 3 0 26 -83 51 -184z m98
-401 l45 -185 -44 -45 c-30 -31 -46 -41 -51 -33 -3 7 -25 91 -49 186 l-43 173
44 45 c24 24 46 44 49 44 3 0 25 -83 49 -185z m-20133 123 c-94 -218 -415
-857 -450 -897 -12 -12 -57 -55 -100 -95 l-80 -71 151 295 c83 162 185 369
227 460 77 165 77 165 168 253 50 48 93 87 95 87 2 0 -3 -15 -11 -32z m20235
-530 l43 -178 -44 -45 c-52 -53 -42 -70 -100 158 l-43 168 43 44 c24 25 47 42
51 37 3 -4 26 -87 50 -184z m103 -396 l47 -173 -42 -49 c-23 -28 -44 -48 -46
-46 -2 2 -26 86 -53 187 l-50 184 42 42 c23 24 45 40 49 35 4 -4 28 -85 53
-180z m-20862 -134 c-33 -62 -115 -221 -182 -353 -244 -478 -255 -496 -381
-620 -99 -97 -109 -105 -86 -65 99 179 226 418 357 672 l152 298 96 90 c53 49
98 90 100 90 1 0 -24 -51 -56 -112z m20968 -258 l50 -185 -42 -37 c-24 -21
-46 -38 -49 -38 -3 0 -27 79 -53 175 l-47 176 42 50 c23 27 43 48 45 46 2 -1
26 -86 54 -187z m104 -392 l48 -177 -43 -51 c-24 -29 -45 -48 -46 -43 -2 4
-25 89 -52 188 l-49 180 46 42 c26 23 47 41 48 40 1 -1 22 -82 48 -179z m106
-394 l48 -178 -41 -49 c-50 -58 -42 -70 -102 152 l-44 165 41 48 c22 27 43 47
45 44 3 -2 26 -84 53 -182z m-21698 54 c-16 -29 -125 -228 -242 -443 -290
-533 -288 -529 -426 -665 -76 -75 -110 -103 -96 -80 11 19 55 93 97 165 42 71
165 292 272 490 l196 360 111 113 c61 61 112 112 114 112 2 0 -10 -24 -26 -52z
m21814 -671 c-48 -58 -39 -72 -102 151 l-46 162 43 51 42 51 52 -184 52 -183
-41 -48z m104 -166 l49 -173 -41 -49 c-23 -27 -42 -48 -44 -47 -1 2 -25 83
-53 181 l-52 178 43 51 c23 28 43 47 45 42 2 -5 25 -87 53 -183z m109 -380
c28 -96 51 -180 51 -187 0 -6 -20 -28 -44 -47 l-43 -36 -51 176 -51 176 41 49
c22 27 42 47 43 46 2 -2 26 -81 54 -177z m-22648 102 c-16 -27 -136 -230 -267
-453 -369 -629 -373 -635 -520 -780 l-126 -125 53 85 c29 47 91 148 139 225
48 77 180 300 295 495 l208 355 121 123 c66 67 122 122 123 122 2 0 -10 -21
-26 -47z m22763 -500 c25 -89 46 -168 46 -176 0 -14 -77 -94 -84 -86 -2 2 -27
85 -55 184 l-52 180 43 37 c23 21 46 34 49 30 4 -4 28 -80 53 -169z m113 -390
l51 -178 -41 -49 c-27 -32 -43 -44 -46 -35 -3 8 -28 91 -57 184 l-52 170 41
43 c23 23 44 42 47 42 3 0 29 -80 57 -177z m129 -602 l-44 -44 -11 39 c-6 21
-31 100 -55 174 l-43 135 41 49 41 48 57 -178 58 -179 -44 -44z m-23738 267
c-8 -13 -123 -196 -255 -408 -132 -212 -310 -491 -395 -620 -147 -222 -164
-243 -297 -375 l-142 -140 224 335 c123 184 313 479 422 655 196 317 199 321
324 448 69 70 127 127 130 127 2 0 -3 -10 -11 -22z m23847 -428 l55 -174 -42
-44 -43 -43 -57 178 -58 178 42 42 c23 23 43 41 45 39 2 -1 28 -81 58 -176z
m120 -376 l56 -177 -43 -44 -43 -44 -57 178 -57 178 42 43 c22 23 42 42 43 42
2 0 28 -79 59 -176z m126 -397 l53 -168 -42 -41 c-23 -23 -43 -40 -45 -38 -2
3 -29 84 -60 180 l-55 175 41 43 c28 29 43 38 48 30 4 -7 31 -89 60 -181z
m-25169 -464 c-113 -170 -355 -517 -538 -773 -328 -459 -334 -467 -489 -620
l-157 -155 418 585 c229 322 475 673 547 780 116 175 144 210 275 343 81 81
147 147 148 147 1 0 -91 -138 -204 -307z m25289 93 l56 -174 -42 -42 -43 -42
-58 176 -58 176 39 40 c21 22 42 40 45 40 3 0 30 -79 61 -174z m147 -575 c-18
-21 -37 -40 -42 -42 -4 -2 -35 72 -67 166 l-58 170 41 42 42 43 59 -170 59
-170 -34 -39z m105 -175 c31 -93 54 -172 52 -177 -3 -4 -23 -21 -44 -38 l-39
-31 -57 170 -57 171 37 45 c21 25 41 42 45 37 4 -4 33 -84 63 -177z m125 -374
l58 -172 -42 -41 -41 -40 -62 178 -62 178 43 37 c24 20 44 35 45 34 2 -1 29
-80 61 -174z m146 -583 c-21 -21 -42 -35 -46 -31 -5 5 -33 82 -63 172 l-55
164 42 43 43 44 59 -177 58 -176 -38 -39z m-26800 209 c-121 -167 -865 -1148
-1017 -1340 l-179 -228 -45 0 -45 0 34 43 c18 23 83 105 143 182 61 77 265
345 454 595 319 424 355 467 514 628 95 94 173 172 175 172 2 0 -13 -24 -34
-52z m26910 -369 c31 -86 56 -160 56 -165 0 -6 -17 -27 -39 -48 -26 -25 -40
-33 -43 -24 -3 7 -31 84 -63 171 l-58 158 39 40 c21 21 41 36 45 31 3 -4 32
-77 63 -163z m132 -367 l61 -167 -36 -42 c-19 -24 -38 -43 -41 -43 -3 0 -33
78 -67 173 l-62 172 37 38 c20 20 39 37 42 37 3 0 32 -75 66 -168z m140 -386
l54 -150 -36 -37 c-21 -21 -40 -36 -44 -34 -4 2 -33 76 -65 165 l-57 160 38
46 c37 46 38 46 47 23 5 -13 33 -91 63 -173z m114 -316 l48 -131 -56 3 -57 3
-34 93 -34 93 39 40 c21 21 40 37 42 35 2 -3 25 -63 52 -136z"/>
<path d="M945 59960 c-4 -7 75 -10 229 -10 151 0 236 4 236 10 0 6 -83 10
-229 10 -143 0 -232 -4 -236 -10z"/>
<path d="M1645 59960 c-4 -7 75 -10 229 -10 151 0 236 4 236 10 0 6 -83 10
-229 10 -143 0 -232 -4 -236 -10z"/>
<path d="M2345 59960 c-4 -7 75 -10 229 -10 151 0 236 4 236 10 0 6 -83 10
-229 10 -143 0 -232 -4 -236 -10z"/>
<path d="M3045 59960 c-4 -7 75 -10 229 -10 151 0 236 4 236 10 0 6 -83 10
-229 10 -143 0 -232 -4 -236 -10z"/>
<path d="M3735 59960 c-4 -7 77 -10 234 -10 154 0 241 4 241 10 0 6 -85 10
-234 10 -146 0 -237 -4 -241 -10z"/>
<path d="M4435 59960 c-4 -7 75 -10 229 -10 151 0 236 4 236 10 0 6 -83 10
-229 10 -143 0 -232 -4 -236 -10z"/>
<path d="M5135 59960 c-4 -7 75 -10 229 -10 151 0 236 4 236 10 0 6 -83 10
-229 10 -143 0 -232 -4 -236 -10z"/>
<path d="M12115 59960 c-4 -7 75 -10 229 -10 151 0 236 4 236 10 0 6 -83 10
-229 10 -143 0 -232 -4 -236 -10z"/>
<path d="M12815 59960 c-4 -7 75 -10 229 -10 151 0 236 4 236 10 0 6 -83 10
-229 10 -143 0 -232 -4 -236 -10z"/>
<path d="M13515 59960 c-4 -7 75 -10 229 -10 151 0 236 4 236 10 0 6 -83 10
-229 10 -143 0 -232 -4 -236 -10z"/>
<path d="M14205 59960 c-4 -7 77 -10 234 -10 154 0 241 4 241 10 0 6 -85 10
-234 10 -146 0 -237 -4 -241 -10z"/>
<path d="M14905 59960 c-4 -7 75 -10 229 -10 151 0 236 4 236 10 0 6 -83 10
-229 10 -143 0 -232 -4 -236 -10z"/>
<path d="M15605 59960 c-4 -7 75 -10 229 -10 151 0 236 4 236 10 0 6 -83 10
-229 10 -143 0 -232 -4 -236 -10z"/>
<path d="M16305 59960 c-4 -7 75 -10 229 -10 151 0 236 4 236 10 0 6 -83 10
-229 10 -143 0 -232 -4 -236 -10z"/>
<path d="M23285 59960 c-4 -7 75 -10 229 -10 151 0 236 4 236 10 0 6 -83 10
-229 10 -143 0 -232 -4 -236 -10z"/>
<path d="M23985 59960 c-4 -7 75 -10 229 -10 151 0 236 4 236 10 0 6 -83 10
-229 10 -143 0 -232 -4 -236 -10z"/>
<path d="M24685 59960 c-4 -7 75 -10 229 -10 151 0 236 4 236 10 0 6 -83 10
-229 10 -143 0 -232 -4 -236 -10z"/>
<path d="M25375 59960 c-4 -7 77 -10 234 -10 154 0 241 4 241 10 0 6 -85 10
-234 10 -146 0 -237 -4 -241 -10z"/>
<path d="M26075 59960 c-4 -7 75 -10 229 -10 151 0 236 4 236 10 0 6 -83 10
-229 10 -143 0 -232 -4 -236 -10z"/>
<path d="M26775 59960 c-4 -7 75 -10 229 -10 151 0 236 4 236 10 0 6 -83 10
-229 10 -143 0 -232 -4 -236 -10z"/>
<path d="M27475 59960 c-4 -7 75 -10 229 -10 151 0 236 4 236 10 0 6 -83 10
-229 10 -143 0 -232 -4 -236 -10z"/>
<path d="M8125 11316 c-106 -25 -115 -30 -115 -61 0 -13 -4 -27 -10 -30 -6 -4
-10 -69 -10 -164 0 -166 4 -181 47 -181 23 0 23 -2 23 -108 0 -71 4 -112 12
-120 9 -9 80 -12 258 -12 178 0 249 3 258 12 8 8 12 49 12 120 l0 108 35 0 35
0 0 -108 c0 -71 4 -112 12 -120 17 -17 489 -17 506 0 8 8 12 49 12 120 l0 108
35 0 35 0 0 -108 c0 -71 4 -112 12 -120 9 -9 79 -12 253 -12 174 0 244 3 253
12 8 8 12 49 12 120 l0 108 35 0 35 0 0 -108 c0 -71 4 -112 12 -120 9 -9 79
-12 253 -12 174 0 244 3 253 12 8 8 12 49 12 120 l0 108 35 0 35 0 0 -108 c0
-71 4 -112 12 -120 9 -9 80 -12 258 -12 178 0 249 3 258 12 8 8 12 49 12 120
l0 108 35 0 35 0 0 -108 c0 -71 4 -112 12 -120 17 -17 489 -17 506 0 8 8 12
49 12 120 l0 108 35 0 35 0 0 -108 c0 -71 4 -112 12 -120 9 -9 79 -12 253 -12
174 0 244 3 253 12 8 8 12 49 12 120 l0 108 35 0 35 0 0 -108 c0 -71 4 -112
12 -120 9 -9 79 -12 253 -12 174 0 244 3 253 12 8 8 12 49 12 120 l0 108 35 0
35 0 0 -108 c0 -71 4 -112 12 -120 9 -9 79 -12 253 -12 174 0 244 3 253 12 8
8 12 49 12 120 l0 108 40 0 40 0 0 -108 c0 -71 4 -112 12 -120 9 -9 79 -12
253 -12 174 0 244 3 253 12 8 8 12 49 12 120 0 106 0 108 23 108 43 0 47 15
47 181 0 95 -4 160 -10 164 -5 3 -10 17 -10 29 0 34 -13 40 -130 65 -125 27
-276 26 -407 -4 -81 -19 -85 -19 -165 0 -132 30 -292 31 -417 2 l-105 -23 -95
23 c-130 31 -270 31 -406 0 l-100 -23 -95 23 c-130 31 -270 30 -406 0 l-101
-23 -104 23 c-125 29 -285 28 -416 -2 -81 -19 -85 -19 -165 0 -132 30 -292 31
-417 2 l-105 -23 -95 23 c-129 30 -270 30 -405 -1 l-100 -22 -95 23 c-130 31
-270 31 -407 0 l-100 -23 -100 22 c-134 31 -266 31 -400 1 l-100 -23 -100 22
c-131 30 -283 30 -409 0z m375 -62 c51 -12 68 -20 61 -27 -6 -6 -11 -19 -11
-29 0 -17 -15 -18 -220 -18 -205 0 -220 1 -220 18 0 10 -5 23 -11 29 -18 18
103 41 222 42 66 1 134 -5 179 -15z m598 0 l70 -16 -10 -29 -10 -29 -212 0
-213 0 -12 26 c-6 15 -10 28 -8 30 2 2 30 10 63 18 81 20 245 20 332 0z m582
7 c19 -5 47 -12 62 -15 25 -6 26 -8 16 -36 l-10 -30 -212 0 -213 0 -12 26 c-6
15 -10 28 -8 30 26 26 301 44 377 25z m600 0 c19 -5 47 -12 62 -15 25 -6 26
-8 16 -36 l-10 -30 -212 0 -213 0 -12 26 c-6 15 -10 28 -9 30 2 2 31 9 63 17
68 17 262 21 315 8z m630 -7 c51 -12 68 -20 61 -27 -6 -6 -11 -19 -11 -29 0
-17 -15 -18 -220 -18 -205 0 -220 1 -220 18 0 10 -5 23 -11 29 -18 18 103 41
222 42 66 1 134 -5 179 -15z m598 0 l70 -16 -10 -29 -10 -29 -211 0 -212 0
-17 29 -16 30 61 14 c86 20 258 21 345 1z m582 7 c19 -5 47 -12 62 -15 25 -6
26 -8 16 -36 l-10 -30 -212 0 -213 0 -12 26 c-6 15 -10 28 -8 30 26 26 301 44
377 25z m600 0 c19 -5 47 -12 62 -15 25 -6 26 -8 16 -36 l-10 -30 -212 0 -213
0 -12 26 c-6 15 -10 28 -8 30 26 26 301 44 377 25z m628 -7 l70 -16 -16 -29
-17 -29 -211 0 -211 0 -12 26 c-6 15 -10 28 -9 30 2 2 31 9 63 17 83 20 256
21 343 1z m602 0 c51 -12 68 -20 61 -27 -6 -6 -11 -19 -11 -29 0 -17 -15 -18
-212 -18 l-213 0 -17 29 -16 30 61 14 c86 20 258 21 347 1z m-5390 -344 l0
-200 -200 0 -200 0 0 200 0 200 200 0 200 0 0 -200z m600 0 l0 -200 -195 0
-195 0 0 200 0 200 195 0 195 0 0 -200z m600 0 l0 -200 -195 0 -195 0 0 200 0
200 195 0 195 0 0 -200z m600 0 l0 -200 -195 0 -195 0 0 200 0 200 195 0 195
0 0 -200z m610 0 l0 -200 -200 0 -200 0 0 200 0 200 200 0 200 0 0 -200z m600
0 l0 -200 -195 0 -195 0 0 200 0 200 195 0 195 0 0 -200z m600 0 l0 -200 -195
0 -195 0 0 200 0 200 195 0 195 0 0 -200z m600 0 l0 -200 -195 0 -195 0 0 200
0 200 195 0 195 0 0 -200z m600 0 l0 -200 -195 0 -195 0 0 200 0 200 195 0
195 0 0 -200z m610 0 l0 -200 -195 0 -195 0 0 200 0 200 195 0 195 0 0 -200z"/>
<path d="M14925 11316 c-106 -25 -115 -30 -115 -61 0 -13 -4 -27 -10 -30 -6
-4 -10 -69 -10 -164 0 -166 4 -181 47 -181 23 0 23 -2 23 -108 0 -71 4 -112
12 -120 9 -9 80 -12 258 -12 178 0 249 3 258 12 8 8 12 49 12 120 l0 108 35 0
35 0 0 -108 c0 -71 4 -112 12 -120 17 -17 489 -17 506 0 8 8 12 49 12 120 l0
108 35 0 35 0 0 -108 c0 -71 4 -112 12 -120 9 -9 79 -12 253 -12 174 0 244 3
253 12 8 8 12 49 12 120 l0 108 35 0 35 0 0 -108 c0 -71 4 -112 12 -120 9 -9
79 -12 253 -12 174 0 244 3 253 12 8 8 12 49 12 120 l0 108 35 0 35 0 0 -108
c0 -71 4 -112 12 -120 9 -9 79 -12 253 -12 174 0 244 3 253 12 8 8 12 49 12
120 l0 108 40 0 40 0 0 -108 c0 -71 4 -112 12 -120 17 -17 489 -17 506 0 8 8
12 49 12 120 l0 108 35 0 35 0 0 -108 c0 -71 4 -112 12 -120 9 -9 79 -12 253
-12 174 0 244 3 253 12 8 8 12 49 12 120 l0 108 35 0 35 0 0 -108 c0 -71 4
-112 12 -120 9 -9 79 -12 253 -12 174 0 244 3 253 12 8 8 12 49 12 120 l0 108
35 0 35 0 0 -108 c0 -71 4 -112 12 -120 9 -9 79 -12 253 -12 174 0 244 3 253
12 8 8 12 49 12 120 l0 108 35 0 35 0 0 -108 c0 -71 4 -112 12 -120 9 -9 80
-12 258 -12 178 0 249 3 258 12 8 8 12 49 12 120 0 106 0 108 23 108 43 0 47
15 47 181 0 95 -4 160 -10 164 -5 3 -10 17 -10 29 0 34 -13 40 -130 65 -125
27 -276 26 -407 -4 -81 -19 -85 -19 -165 0 -132 30 -292 31 -417 2 l-104 -23
-101 23 c-136 30 -276 31 -406 0 l-95 -23 -100 23 c-136 31 -276 31 -406 0
l-95 -23 -105 23 c-125 29 -285 28 -416 -2 -81 -19 -85 -19 -165 0 -132 30
-292 31 -417 2 l-104 -23 -101 23 c-136 31 -277 31 -405 -1 l-93 -23 -102 23
c-137 32 -276 32 -407 1 l-95 -23 -100 22 c-135 31 -276 31 -405 1 l-95 -23
-100 22 c-131 30 -283 30 -409 0z m375 -62 c51 -12 68 -20 61 -27 -6 -6 -11
-19 -11 -29 0 -17 -15 -18 -220 -18 -205 0 -220 1 -220 18 0 10 -5 23 -11 29
-18 18 103 41 222 42 66 1 134 -5 179 -15z m598 0 l70 -16 -10 -29 -10 -29
-212 0 -213 0 -12 26 c-6 15 -10 29 -7 31 2 3 28 11 58 18 76 19 252 18 336
-1z m602 0 l69 -15 -11 -30 -10 -29 -212 0 -213 0 -12 26 c-6 15 -10 29 -7 31
2 3 28 11 58 18 76 18 255 18 338 -1z m600 0 l69 -15 -11 -30 -10 -29 -212 0
-213 0 -12 26 c-6 15 -10 28 -9 29 2 2 28 10 58 18 75 21 253 21 340 1z m608
0 l70 -16 -16 -29 -17 -29 -212 0 c-198 0 -213 1 -213 18 0 10 -5 23 -11 29
-18 18 103 41 222 42 65 1 134 -5 177 -15z m600 0 l70 -16 -10 -29 -10 -29
-211 0 -212 0 -17 29 -16 30 61 14 c86 20 258 21 345 1z m602 0 l69 -15 -11
-30 -10 -29 -212 0 -213 0 -12 26 c-6 15 -10 29 -7 31 2 3 28 11 58 18 76 18
255 18 338 -1z m600 0 l69 -15 -11 -30 -10 -29 -212 0 -213 0 -12 26 c-6 15
-10 29 -7 31 2 3 28 11 58 18 76 18 255 18 338 -1z m608 0 l70 -16 -16 -29
-17 -29 -211 0 -211 0 -12 26 c-6 15 -10 28 -9 30 2 2 31 9 63 17 83 20 256
21 343 1z m602 0 c51 -12 68 -20 61 -27 -6 -6 -11 -19 -11 -29 0 -17 -15 -18
-212 -18 l-213 0 -17 29 -16 30 61 14 c86 20 258 21 347 1z m-5390 -344 l0
-200 -200 0 -200 0 0 200 0 200 200 0 200 0 0 -200z m600 0 l0 -200 -195 0
-195 0 0 200 0 200 195 0 195 0 0 -200z m600 0 l0 -200 -195 0 -195 0 0 200 0
200 195 0 195 0 0 -200z m600 0 l0 -200 -195 0 -195 0 0 200 0 200 195 0 195
0 0 -200z m600 0 l0 -200 -195 0 -195 0 0 200 0 200 195 0 195 0 0 -200z m610
0 l0 -200 -195 0 -195 0 0 200 0 200 195 0 195 0 0 -200z m600 0 l0 -200 -195
0 -195 0 0 200 0 200 195 0 195 0 0 -200z m600 0 l0 -200 -195 0 -195 0 0 200
0 200 195 0 195 0 0 -200z m600 0 l0 -200 -195 0 -195 0 0 200 0 200 195 0
195 0 0 -200z m610 0 l0 -200 -200 0 -200 0 0 200 0 200 200 0 200 0 0 -200z"/>
<path d="M8125 10316 c-106 -25 -115 -30 -115 -61 0 -13 -4 -27 -10 -30 -6 -4
-10 -71 -10 -169 0 -172 4 -186 47 -186 23 0 23 -2 23 -103 0 -67 4 -107 12
-115 17 -17 499 -17 516 0 8 8 12 48 12 115 l0 103 35 0 35 0 0 -103 c0 -67 4
-107 12 -115 17 -17 489 -17 506 0 8 8 12 48 12 115 l0 103 35 0 35 0 0 -103
c0 -67 4 -107 12 -115 9 -9 79 -12 253 -12 174 0 244 3 253 12 8 8 12 48 12
115 l0 103 35 0 35 0 0 -103 c0 -67 4 -107 12 -115 9 -9 79 -12 253 -12 174 0
244 3 253 12 8 8 12 48 12 115 l0 103 35 0 35 0 0 -103 c0 -67 4 -107 12 -115
9 -9 80 -12 258 -12 178 0 249 3 258 12 8 8 12 48 12 115 l0 103 35 0 35 0 0
-103 c0 -67 4 -107 12 -115 17 -17 489 -17 506 0 8 8 12 48 12 115 l0 103 35
0 35 0 0 -103 c0 -67 4 -107 12 -115 9 -9 79 -12 253 -12 174 0 244 3 253 12
8 8 12 48 12 115 l0 103 35 0 35 0 0 -103 c0 -67 4 -107 12 -115 17 -17 489
-17 506 0 8 8 12 48 12 115 l0 103 35 0 35 0 0 -103 c0 -67 4 -107 12 -115 9
-9 79 -12 253 -12 174 0 244 3 253 12 8 8 12 48 12 115 l0 103 40 0 40 0 0
-103 c0 -67 4 -107 12 -115 17 -17 489 -17 506 0 8 8 12 48 12 115 0 101 0
103 23 103 43 0 47 14 47 186 0 98 -4 165 -10 169 -5 3 -10 17 -10 29 0 34
-13 40 -130 65 -125 27 -276 26 -407 -4 -81 -19 -85 -19 -165 0 -132 30 -292
31 -417 2 l-105 -23 -95 23 c-130 31 -270 31 -406 0 l-100 -23 -95 23 c-130
31 -270 30 -406 0 l-101 -23 -104 23 c-125 29 -285 28 -416 -2 -81 -19 -85
-19 -165 0 -132 30 -292 31 -417 2 l-105 -23 -95 23 c-129 30 -270 30 -405 -1
l-100 -22 -95 23 c-130 31 -270 31 -407 0 l-100 -23 -100 22 c-134 31 -266 31
-400 1 l-100 -23 -100 22 c-131 30 -283 30 -409 0z m375 -62 c51 -12 68 -20
61 -27 -6 -6 -11 -19 -11 -29 0 -17 -15 -18 -220 -18 -205 0 -220 1 -220 18 0
10 -5 23 -11 29 -18 18 103 41 222 42 66 1 134 -5 179 -15z m598 0 l70 -16
-10 -29 -10 -29 -212 0 -213 0 -12 26 c-6 15 -10 28 -8 30 2 2 30 10 63 18 81
20 245 20 332 0z m582 7 c19 -5 47 -12 62 -15 25 -6 26 -8 16 -36 l-10 -30
-212 0 -213 0 -12 26 c-6 15 -10 28 -8 30 26 26 301 44 377 25z m600 0 c19 -5
47 -12 62 -15 25 -6 26 -8 16 -36 l-10 -30 -212 0 -213 0 -12 26 c-6 15 -10
28 -9 30 2 2 31 9 63 17 68 17 262 21 315 8z m630 -7 c51 -12 68 -20 61 -27
-6 -6 -11 -19 -11 -29 0 -17 -15 -18 -220 -18 -205 0 -220 1 -220 18 0 10 -5
23 -11 29 -18 18 103 41 222 42 66 1 134 -5 179 -15z m598 0 l70 -16 -10 -29
-10 -29 -211 0 -212 0 -17 29 -16 30 61 14 c86 20 258 21 345 1z m582 7 c19
-5 47 -12 62 -15 25 -6 26 -8 16 -36 l-10 -30 -212 0 -213 0 -12 26 c-6 15
-10 28 -8 30 26 26 301 44 377 25z m600 0 c19 -5 47 -12 62 -15 25 -6 26 -8
16 -36 l-10 -30 -212 0 -213 0 -12 26 c-6 15 -10 28 -8 30 26 26 301 44 377
25z m628 -7 l70 -16 -16 -29 -17 -29 -211 0 -211 0 -12 26 c-6 15 -10 28 -9
30 2 2 31 9 63 17 83 20 256 21 343 1z m602 0 c51 -12 68 -20 61 -27 -6 -6
-11 -19 -11 -29 0 -17 -15 -18 -212 -18 l-213 0 -17 29 -16 30 61 14 c86 20
258 21 347 1z m-5390 -344 l0 -200 -200 0 -200 0 0 200 0 200 200 0 200 0 0
-200z m600 0 l0 -200 -195 0 -195 0 0 200 0 200 195 0 195 0 0 -200z m600 0
l0 -200 -195 0 -195 0 0 200 0 200 195 0 195 0 0 -200z m600 0 l0 -200 -195 0
-195 0 0 200 0 200 195 0 195 0 0 -200z m610 0 l0 -200 -200 0 -200 0 0 200 0
200 200 0 200 0 0 -200z m600 0 l0 -200 -195 0 -195 0 0 200 0 200 195 0 195
0 0 -200z m600 0 l0 -200 -195 0 -195 0 0 200 0 200 195 0 195 0 0 -200z m600
0 l0 -200 -195 0 -195 0 0 200 0 200 195 0 195 0 0 -200z m600 0 l0 -200 -195
0 -195 0 0 200 0 200 195 0 195 0 0 -200z m610 0 l0 -200 -195 0 -195 0 0 200
0 200 195 0 195 0 0 -200z"/>
<path d="M14925 10316 c-106 -25 -115 -30 -115 -61 0 -13 -4 -27 -10 -30 -6
-4 -10 -71 -10 -169 0 -172 4 -186 47 -186 23 0 23 -2 23 -103 0 -67 4 -107
12 -115 17 -17 499 -17 516 0 8 8 12 48 12 115 l0 103 35 0 35 0 0 -103 c0
-67 4 -107 12 -115 17 -17 489 -17 506 0 8 8 12 48 12 115 l0 103 35 0 35 0 0
-103 c0 -67 4 -107 12 -115 9 -9 79 -12 253 -12 174 0 244 3 253 12 8 8 12 48
12 115 l0 103 35 0 35 0 0 -103 c0 -67 4 -107 12 -115 9 -9 79 -12 253 -12
174 0 244 3 253 12 8 8 12 48 12 115 l0 103 35 0 35 0 0 -103 c0 -67 4 -107
12 -115 9 -9 79 -12 253 -12 174 0 244 3 253 12 8 8 12 48 12 115 l0 103 40 0
40 0 0 -103 c0 -67 4 -107 12 -115 17 -17 489 -17 506 0 8 8 12 48 12 115 l0
103 35 0 35 0 0 -103 c0 -67 4 -107 12 -115 9 -9 79 -12 253 -12 174 0 244 3
253 12 8 8 12 48 12 115 l0 103 35 0 35 0 0 -103 c0 -67 4 -107 12 -115 17
-17 489 -17 506 0 8 8 12 48 12 115 l0 103 35 0 35 0 0 -103 c0 -67 4 -107 12
-115 9 -9 79 -12 253 -12 174 0 244 3 253 12 8 8 12 48 12 115 l0 103 35 0 35
0 0 -103 c0 -67 4 -107 12 -115 17 -17 499 -17 516 0 8 8 12 48 12 115 0 101
0 103 23 103 43 0 47 14 47 186 0 98 -4 165 -10 169 -5 3 -10 17 -10 29 0 34
-13 40 -130 65 -125 27 -276 26 -407 -4 -81 -19 -85 -19 -165 0 -132 30 -292
31 -417 2 l-104 -23 -101 23 c-136 30 -276 31 -406 0 l-95 -23 -100 23 c-136
31 -276 31 -406 0 l-95 -23 -105 23 c-125 29 -285 28 -416 -2 -81 -19 -85 -19
-165 0 -132 30 -292 31 -417 2 l-104 -23 -101 23 c-136 31 -277 31 -405 -1
l-93 -23 -102 23 c-137 32 -276 32 -407 1 l-95 -23 -100 22 c-135 31 -276 31
-405 1 l-95 -23 -100 22 c-131 30 -283 30 -409 0z m375 -62 c51 -12 68 -20 61
-27 -6 -6 -11 -19 -11 -29 0 -17 -15 -18 -220 -18 -205 0 -220 1 -220 18 0 10
-5 23 -11 29 -18 18 103 41 222 42 66 1 134 -5 179 -15z m598 0 l70 -16 -10
-29 -10 -29 -212 0 -213 0 -12 26 c-6 15 -10 29 -7 31 2 3 28 11 58 18 76 19
252 18 336 -1z m602 0 l69 -15 -11 -30 -10 -29 -212 0 -213 0 -12 26 c-6 15
-10 29 -7 31 2 3 28 11 58 18 76 18 255 18 338 -1z m600 0 l69 -15 -11 -30
-10 -29 -212 0 -213 0 -12 26 c-6 15 -10 28 -9 29 2 2 28 10 58 18 75 21 253
21 340 1z m608 0 l70 -16 -16 -29 -17 -29 -212 0 c-198 0 -213 1 -213 18 0 10
-5 23 -11 29 -18 18 103 41 222 42 65 1 134 -5 177 -15z m600 0 l70 -16 -10
-29 -10 -29 -211 0 -212 0 -17 29 -16 30 61 14 c86 20 258 21 345 1z m602 0
l69 -15 -11 -30 -10 -29 -212 0 -213 0 -12 26 c-6 15 -10 29 -7 31 2 3 28 11
58 18 76 18 255 18 338 -1z m600 0 l69 -15 -11 -30 -10 -29 -212 0 -213 0 -12
26 c-6 15 -10 29 -7 31 2 3 28 11 58 18 76 18 255 18 338 -1z m608 0 l70 -16
-16 -29 -17 -29 -211 0 -211 0 -12 26 c-6 15 -10 28 -9 30 2 2 31 9 63 17 83
20 256 21 343 1z m602 0 c51 -12 68 -20 61 -27 -6 -6 -11 -19 -11 -29 0 -17
-15 -18 -212 -18 l-213 0 -17 29 -16 30 61 14 c86 20 258 21 347 1z m-5390
-344 l0 -200 -200 0 -200 0 0 200 0 200 200 0 200 0 0 -200z m600 0 l0 -200
-195 0 -195 0 0 200 0 200 195 0 195 0 0 -200z m600 0 l0 -200 -195 0 -195 0
0 200 0 200 195 0 195 0 0 -200z m600 0 l0 -200 -195 0 -195 0 0 200 0 200
195 0 195 0 0 -200z m600 0 l0 -200 -195 0 -195 0 0 200 0 200 195 0 195 0 0
-200z m610 0 l0 -200 -195 0 -195 0 0 200 0 200 195 0 195 0 0 -200z m600 0
l0 -200 -195 0 -195 0 0 200 0 200 195 0 195 0 0 -200z m600 0 l0 -200 -195 0
-195 0 0 200 0 200 195 0 195 0 0 -200z m600 0 l0 -200 -195 0 -195 0 0 200 0
200 195 0 195 0 0 -200z m610 0 l0 -200 -200 0 -200 0 0 200 0 200 200 0 200
0 0 -200z"/>
<path d="M8125 9316 c-106 -25 -115 -30 -115 -61 0 -13 -4 -27 -10 -30 -6 -4
-10 -71 -10 -169 0 -172 4 -186 47 -186 23 0 23 -2 23 -103 0 -67 4 -107 12
-115 17 -17 499 -17 516 0 8 8 12 48 12 115 l0 103 35 0 35 0 0 -103 c0 -67 4
-107 12 -115 17 -17 489 -17 506 0 8 8 12 48 12 115 l0 103 35 0 35 0 0 -103
c0 -67 4 -107 12 -115 9 -9 79 -12 253 -12 174 0 244 3 253 12 8 8 12 48 12
115 l0 103 35 0 35 0 0 -103 c0 -67 4 -107 12 -115 9 -9 79 -12 253 -12 174 0
244 3 253 12 8 8 12 48 12 115 l0 103 35 0 35 0 0 -103 c0 -67 4 -107 12 -115
9 -9 80 -12 258 -12 178 0 249 3 258 12 8 8 12 48 12 115 l0 103 35 0 35 0 0
-103 c0 -67 4 -107 12 -115 17 -17 489 -17 506 0 8 8 12 48 12 115 l0 103 35
0 35 0 0 -103 c0 -67 4 -107 12 -115 9 -9 79 -12 253 -12 174 0 244 3 253 12
8 8 12 48 12 115 l0 103 35 0 35 0 0 -103 c0 -67 4 -107 12 -115 17 -17 489
-17 506 0 8 8 12 48 12 115 l0 103 35 0 35 0 0 -103 c0 -67 4 -107 12 -115 9
-9 79 -12 253 -12 174 0 244 3 253 12 8 8 12 48 12 115 l0 103 40 0 40 0 0
-103 c0 -67 4 -107 12 -115 17 -17 489 -17 506 0 8 8 12 48 12 115 0 101 0
103 23 103 43 0 47 14 47 186 0 98 -4 165 -10 169 -5 3 -10 17 -10 29 0 34
-13 40 -130 65 -125 27 -276 26 -407 -4 -81 -19 -85 -19 -165 0 -132 30 -292
31 -417 2 l-105 -23 -95 23 c-130 31 -270 31 -406 0 l-100 -23 -95 23 c-130
31 -270 30 -406 0 l-101 -23 -104 23 c-125 29 -285 28 -416 -2 -81 -19 -85
-19 -165 0 -132 30 -292 31 -417 2 l-105 -23 -95 23 c-129 30 -270 30 -405 -1
l-100 -22 -95 23 c-130 31 -270 31 -407 0 l-100 -23 -100 22 c-134 31 -266 31
-400 1 l-100 -23 -100 22 c-131 30 -283 30 -409 0z m373 -62 c61 -14 70 -18
62 -32 -5 -10 -11 -25 -14 -34 -5 -16 -24 -18 -221 -18 l-215 0 0 23 c0 13 -5
28 -11 34 -18 18 103 41 222 42 66 1 134 -5 177 -15z m601 0 c60 -14 71 -19
65 -33 -3 -9 -9 -24 -11 -33 -5 -16 -24 -18 -218 -18 -194 0 -213 2 -218 18
-2 9 -8 24 -12 34 -17 41 255 63 394 32z m604 1 c33 -7 61 -15 63 -17 2 -3 -2
-19 -8 -36 l-12 -32 -212 0 c-193 0 -212 2 -217 18 -2 9 -8 24 -12 34 -5 13 5
19 57 31 81 19 265 21 341 2z m600 0 c33 -7 61 -15 63 -17 2 -3 -2 -19 -8 -36
l-12 -32 -211 0 -211 0 -12 32 c-6 17 -10 33 -9 34 1 2 30 9 62 17 78 19 264
20 338 2z m607 -1 c51 -12 68 -20 61 -27 -6 -6 -11 -21 -11 -34 l0 -23 -220 0
-220 0 0 23 c0 13 -5 28 -11 34 -18 18 103 41 222 42 66 1 134 -5 179 -15z
m599 0 c60 -14 71 -19 65 -33 -3 -9 -9 -24 -11 -33 -5 -16 -24 -18 -217 -18
l-212 0 -15 34 -16 35 61 14 c85 20 257 21 345 1z m604 1 c33 -7 61 -15 63
-17 2 -3 -2 -19 -8 -36 l-12 -32 -212 0 c-193 0 -212 2 -217 18 -2 9 -8 24
-12 34 -5 13 5 19 57 31 81 19 265 21 341 2z m600 0 c33 -7 60 -15 62 -17 2
-2 -3 -18 -10 -35 l-14 -33 -209 0 c-191 0 -210 2 -215 18 -2 9 -8 24 -12 34
-5 13 5 19 57 31 81 19 265 21 341 2z m604 -1 l70 -15 -16 -35 -15 -34 -211 0
-211 0 -12 32 c-6 17 -10 33 -9 34 1 2 30 9 62 17 83 20 256 21 342 1z m603 0
c51 -12 68 -20 61 -27 -6 -6 -11 -21 -11 -34 l0 -23 -213 0 -213 0 -15 34 -16
35 61 14 c86 20 257 21 346 1z m-5390 -349 l0 -195 -200 0 -200 0 0 195 0 195
200 0 200 0 0 -195z m600 0 l0 -195 -195 0 -195 0 0 195 0 195 195 0 195 0 0
-195z m600 0 l0 -195 -195 0 -195 0 0 195 0 195 195 0 195 0 0 -195z m600 0
l0 -195 -195 0 -195 0 0 195 0 195 195 0 195 0 0 -195z m610 0 l0 -195 -200 0
-200 0 0 195 0 195 200 0 200 0 0 -195z m600 0 l0 -195 -195 0 -195 0 0 195 0
195 195 0 195 0 0 -195z m600 0 l0 -195 -195 0 -195 0 0 195 0 195 195 0 195
0 0 -195z m600 0 l0 -195 -195 0 -195 0 0 195 0 195 195 0 195 0 0 -195z m600
0 l0 -195 -195 0 -195 0 0 195 0 195 195 0 195 0 0 -195z m610 0 l0 -195 -195
0 -195 0 0 195 0 195 195 0 195 0 0 -195z"/>
<path d="M14925 9316 c-106 -25 -115 -30 -115 -61 0 -13 -4 -27 -10 -30 -6 -4
-10 -71 -10 -169 0 -172 4 -186 47 -186 23 0 23 -2 23 -103 0 -67 4 -107 12
-115 17 -17 499 -17 516 0 8 8 12 48 12 115 l0 103 35 0 35 0 0 -103 c0 -67 4
-107 12 -115 17 -17 489 -17 506 0 8 8 12 48 12 115 l0 103 35 0 35 0 0 -103
c0 -67 4 -107 12 -115 9 -9 79 -12 253 -12 174 0 244 3 253 12 8 8 12 48 12
115 l0 103 35 0 35 0 0 -103 c0 -67 4 -107 12 -115 9 -9 79 -12 253 -12 174 0
244 3 253 12 8 8 12 48 12 115 l0 103 35 0 35 0 0 -103 c0 -67 4 -107 12 -115
9 -9 79 -12 253 -12 174 0 244 3 253 12 8 8 12 48 12 115 l0 103 40 0 40 0 0
-103 c0 -67 4 -107 12 -115 17 -17 489 -17 506 0 8 8 12 48 12 115 l0 103 35
0 35 0 0 -103 c0 -67 4 -107 12 -115 9 -9 79 -12 253 -12 174 0 244 3 253 12
8 8 12 48 12 115 l0 103 35 0 35 0 0 -103 c0 -67 4 -107 12 -115 17 -17 489
-17 506 0 8 8 12 48 12 115 l0 103 35 0 35 0 0 -103 c0 -67 4 -107 12 -115 9
-9 79 -12 253 -12 174 0 244 3 253 12 8 8 12 48 12 115 l0 103 35 0 35 0 0
-103 c0 -67 4 -107 12 -115 17 -17 499 -17 516 0 8 8 12 48 12 115 0 101 0
103 23 103 43 0 47 14 47 186 0 98 -4 165 -10 169 -5 3 -10 17 -10 29 0 34
-13 40 -130 65 -125 27 -276 26 -407 -4 -81 -19 -85 -19 -165 0 -132 30 -292
31 -417 2 l-104 -23 -101 23 c-136 30 -276 31 -406 0 l-95 -23 -100 23 c-136
31 -276 31 -406 0 l-95 -23 -105 23 c-125 29 -285 28 -416 -2 -81 -19 -85 -19
-165 0 -132 30 -292 31 -417 2 l-104 -23 -101 23 c-136 31 -277 31 -405 -1
l-93 -23 -102 23 c-137 32 -276 32 -407 1 l-95 -23 -100 22 c-135 31 -276 31
-405 1 l-95 -23 -100 22 c-131 30 -283 30 -409 0z m375 -62 c51 -12 68 -20 61
-27 -6 -6 -11 -21 -11 -34 l0 -23 -220 0 -220 0 0 23 c0 13 -5 28 -11 34 -18
18 103 41 222 42 66 1 134 -5 179 -15z m599 0 c60 -14 71 -19 65 -33 -3 -9 -9
-24 -11 -33 -5 -16 -24 -18 -217 -18 l-212 0 -12 32 c-6 17 -10 34 -8 36 3 2
28 10 58 17 77 19 252 18 337 -1z m602 0 c58 -13 69 -19 64 -32 -4 -10 -10
-25 -12 -34 -5 -16 -24 -18 -214 -18 l-208 0 -16 31 c-9 17 -14 33 -11 36 2 3
28 11 58 18 77 19 255 18 339 -1z m600 0 c58 -13 69 -19 64 -32 -4 -10 -10
-25 -12 -34 -5 -16 -24 -18 -217 -18 l-212 0 -12 32 c-6 17 -11 33 -9 34 1 1
27 9 57 17 75 21 253 21 341 1z m606 0 l70 -15 -16 -35 -15 -34 -213 0 -213 0
0 23 c0 13 -5 28 -11 34 -18 18 103 41 222 42 65 1 134 -5 176 -15z m602 0
c60 -14 71 -19 65 -33 -3 -9 -9 -24 -11 -33 -5 -16 -24 -18 -217 -18 l-212 0
-15 34 -16 35 61 14 c85 20 257 21 345 1z m602 0 c58 -13 69 -19 64 -32 -4
-10 -10 -25 -12 -34 -5 -16 -24 -18 -217 -18 l-212 0 -12 32 c-6 17 -10 34 -8
36 3 2 28 10 58 17 77 19 255 18 339 -1z m600 0 c58 -13 69 -19 64 -32 -4 -10
-10 -25 -12 -34 -5 -16 -24 -18 -217 -18 l-212 0 -12 32 c-6 17 -10 34 -8 36
3 2 28 10 58 17 77 19 255 18 339 -1z m606 0 l70 -15 -16 -35 -15 -34 -211 0
-211 0 -12 32 c-6 17 -10 33 -9 34 1 2 30 9 62 17 83 20 256 21 342 1z m603 0
c51 -12 68 -20 61 -27 -6 -6 -11 -21 -11 -34 l0 -23 -209 0 -209 0 -20 34 -20
35 61 14 c86 20 258 21 347 1z m-5390 -349 l0 -195 -200 0 -200 0 0 195 0 195
200 0 200 0 0 -195z m600 0 l0 -195 -195 0 -195 0 0 195 0 195 195 0 195 0 0
-195z m600 0 l0 -195 -195 0 -195 0 0 195 0 195 195 0 195 0 0 -195z m600 0
l0 -195 -195 0 -195 0 0 195 0 195 195 0 195 0 0 -195z m600 0 l0 -195 -195 0
-195 0 0 195 0 195 195 0 195 0 0 -195z m610 0 l0 -195 -195 0 -195 0 0 195 0
195 195 0 195 0 0 -195z m600 0 l0 -195 -195 0 -195 0 0 195 0 195 195 0 195
0 0 -195z m600 0 l0 -195 -195 0 -195 0 0 195 0 195 195 0 195 0 0 -195z m600
0 l0 -195 -195 0 -195 0 0 195 0 195 195 0 195 0 0 -195z m610 0 l0 -195 -200
0 -200 0 0 195 0 195 200 0 200 0 0 -195z"/>
<path d="M8125 8316 c-106 -25 -115 -30 -115 -61 0 -13 -4 -27 -10 -30 -6 -4
-10 -71 -10 -169 0 -172 4 -186 47 -186 23 0 23 -2 23 -103 0 -67 4 -107 12
-115 17 -17 499 -17 516 0 8 8 12 48 12 115 l0 103 35 0 35 0 0 -103 c0 -67 4
-107 12 -115 17 -17 489 -17 506 0 8 8 12 48 12 115 l0 103 35 0 35 0 0 -103
c0 -67 4 -107 12 -115 9 -9 79 -12 253 -12 174 0 244 3 253 12 8 8 12 48 12
115 l0 103 35 0 35 0 0 -103 c0 -67 4 -107 12 -115 9 -9 79 -12 253 -12 174 0
244 3 253 12 8 8 12 48 12 115 l0 103 35 0 35 0 0 -103 c0 -67 4 -107 12 -115
9 -9 80 -12 258 -12 178 0 249 3 258 12 8 8 12 48 12 115 l0 103 35 0 35 0 0
-103 c0 -67 4 -107 12 -115 17 -17 489 -17 506 0 8 8 12 48 12 115 l0 103 35
0 35 0 0 -103 c0 -67 4 -107 12 -115 9 -9 79 -12 253 -12 174 0 244 3 253 12
8 8 12 48 12 115 l0 103 35 0 35 0 0 -103 c0 -67 4 -107 12 -115 17 -17 489
-17 506 0 8 8 12 48 12 115 l0 103 35 0 35 0 0 -103 c0 -67 4 -107 12 -115 9
-9 79 -12 253 -12 174 0 244 3 253 12 8 8 12 48 12 115 l0 103 40 0 40 0 0
-103 c0 -67 4 -107 12 -115 17 -17 489 -17 506 0 8 8 12 48 12 115 0 101 0
103 23 103 43 0 47 14 47 186 0 98 -4 165 -10 169 -5 3 -10 17 -10 29 0 34
-13 40 -130 65 -125 27 -276 26 -407 -4 -81 -19 -85 -19 -165 0 -132 30 -292
31 -417 2 l-105 -23 -95 23 c-130 31 -270 31 -406 0 l-100 -23 -95 23 c-130
31 -270 30 -406 0 l-101 -23 -104 23 c-125 29 -285 28 -416 -2 -81 -19 -85
-19 -165 0 -132 30 -292 31 -417 2 l-105 -23 -95 23 c-129 30 -270 30 -405 -1
l-100 -22 -95 23 c-130 31 -270 31 -407 0 l-100 -23 -100 22 c-134 31 -266 31
-400 1 l-100 -23 -100 22 c-131 30 -283 30 -409 0z m375 -62 c51 -12 68 -20
61 -27 -6 -6 -11 -21 -11 -34 l0 -23 -220 0 -220 0 0 23 c0 13 -5 28 -11 34
-18 18 103 41 222 42 66 1 134 -5 179 -15z m599 0 c60 -14 71 -19 65 -33 -3
-9 -9 -24 -11 -33 -5 -16 -24 -18 -218 -18 -194 0 -213 2 -218 18 -2 9 -8 24
-12 34 -17 41 255 63 394 32z m604 1 c33 -7 61 -15 63 -17 2 -3 -2 -19 -8 -36
l-12 -32 -212 0 c-193 0 -212 2 -217 18 -2 9 -8 24 -12 34 -5 13 5 19 57 31
81 19 265 21 341 2z m600 0 c33 -7 61 -15 63 -17 2 -3 -2 -19 -8 -36 l-12 -32
-211 0 -211 0 -12 32 c-6 17 -10 33 -9 34 1 2 30 9 62 17 78 19 264 20 338 2z
m607 -1 c51 -12 68 -20 61 -27 -6 -6 -11 -21 -11 -34 l0 -23 -220 0 -220 0 0
23 c0 13 -5 28 -11 34 -18 18 103 41 222 42 66 1 134 -5 179 -15z m599 0 c60
-14 71 -19 65 -33 -3 -9 -9 -24 -11 -33 -5 -16 -24 -18 -217 -18 l-212 0 -15
34 -16 35 61 14 c85 20 257 21 345 1z m604 1 c33 -7 61 -15 63 -17 2 -3 -2
-19 -8 -36 l-12 -32 -212 0 c-193 0 -212 2 -217 18 -2 9 -8 24 -12 34 -5 13 5
19 57 31 81 19 265 21 341 2z m600 0 c33 -7 61 -15 63 -17 2 -3 -2 -19 -8 -36
l-12 -32 -212 0 c-193 0 -212 2 -217 18 -2 9 -8 24 -12 34 -5 13 5 19 57 31
81 19 265 21 341 2z m604 -1 l70 -15 -16 -35 -15 -34 -211 0 -211 0 -12 32
c-6 17 -10 33 -9 34 1 2 30 9 62 17 83 20 256 21 342 1z m603 0 c51 -12 68
-20 61 -27 -6 -6 -11 -21 -11 -34 l0 -23 -213 0 -213 0 -15 34 -16 35 61 14
c86 20 257 21 346 1z m-5390 -349 l0 -195 -200 0 -200 0 0 195 0 195 200 0
200 0 0 -195z m600 0 l0 -195 -195 0 -195 0 0 195 0 195 195 0 195 0 0 -195z
m600 0 l0 -195 -195 0 -195 0 0 195 0 195 195 0 195 0 0 -195z m600 0 l0 -195
-195 0 -195 0 0 195 0 195 195 0 195 0 0 -195z m610 0 l0 -195 -200 0 -200 0
0 195 0 195 200 0 200 0 0 -195z m600 0 l0 -195 -195 0 -195 0 0 195 0 195
195 0 195 0 0 -195z m600 0 l0 -195 -195 0 -195 0 0 195 0 195 195 0 195 0 0
-195z m600 0 l0 -195 -195 0 -195 0 0 195 0 195 195 0 195 0 0 -195z m600 0
l0 -195 -195 0 -195 0 0 195 0 195 195 0 195 0 0 -195z m610 0 l0 -195 -195 0
-195 0 0 195 0 195 195 0 195 0 0 -195z"/>
<path d="M14925 8316 c-106 -25 -115 -30 -115 -61 0 -13 -4 -27 -10 -30 -6 -4
-10 -71 -10 -169 0 -172 4 -186 47 -186 23 0 23 -2 23 -103 0 -67 4 -107 12
-115 17 -17 499 -17 516 0 8 8 12 48 12 115 l0 103 35 0 35 0 0 -103 c0 -67 4
-107 12 -115 17 -17 489 -17 506 0 8 8 12 48 12 115 l0 103 35 0 35 0 0 -103
c0 -67 4 -107 12 -115 9 -9 79 -12 253 -12 174 0 244 3 253 12 8 8 12 48 12
115 l0 103 35 0 35 0 0 -103 c0 -67 4 -107 12 -115 9 -9 79 -12 253 -12 174 0
244 3 253 12 8 8 12 48 12 115 l0 103 35 0 35 0 0 -103 c0 -67 4 -107 12 -115
9 -9 79 -12 253 -12 174 0 244 3 253 12 8 8 12 48 12 115 l0 103 40 0 40 0 0
-103 c0 -67 4 -107 12 -115 17 -17 489 -17 506 0 8 8 12 48 12 115 l0 103 35
0 35 0 0 -103 c0 -67 4 -107 12 -115 9 -9 79 -12 253 -12 174 0 244 3 253 12
8 8 12 48 12 115 l0 103 35 0 35 0 0 -103 c0 -67 4 -107 12 -115 17 -17 489
-17 506 0 8 8 12 48 12 115 l0 103 35 0 35 0 0 -103 c0 -67 4 -107 12 -115 9
-9 79 -12 253 -12 174 0 244 3 253 12 8 8 12 48 12 115 l0 103 35 0 35 0 0
-103 c0 -67 4 -107 12 -115 17 -17 499 -17 516 0 8 8 12 48 12 115 0 101 0
103 23 103 43 0 47 14 47 186 0 98 -4 165 -10 169 -5 3 -10 17 -10 29 0 34
-13 40 -130 65 -125 27 -276 26 -407 -4 -81 -19 -85 -19 -165 0 -132 30 -292
31 -417 2 l-104 -23 -101 23 c-136 30 -276 31 -406 0 l-95 -23 -100 23 c-136
31 -276 31 -406 0 l-95 -23 -105 23 c-125 29 -285 28 -416 -2 -81 -19 -85 -19
-165 0 -132 30 -292 31 -417 2 l-104 -23 -101 23 c-136 31 -277 31 -405 -1
l-93 -23 -102 23 c-137 32 -276 32 -407 1 l-95 -23 -100 22 c-135 31 -276 31
-405 1 l-95 -23 -100 22 c-131 30 -283 30 -409 0z m375 -62 c51 -12 68 -20 61
-27 -6 -6 -11 -21 -11 -34 l0 -23 -220 0 -220 0 0 23 c0 13 -5 28 -11 34 -18
18 103 41 222 42 66 1 134 -5 179 -15z m599 0 c60 -14 71 -19 65 -33 -3 -9 -9
-24 -11 -33 -5 -16 -24 -18 -217 -18 l-212 0 -12 32 c-6 17 -10 34 -8 36 3 2
28 10 58 17 77 19 252 18 337 -1z m602 0 c58 -13 69 -19 64 -32 -4 -10 -10
-25 -12 -34 -5 -16 -24 -18 -217 -18 l-212 0 -12 32 c-6 17 -10 34 -8 36 3 2
28 10 58 17 77 19 255 18 339 -1z m600 0 c58 -13 69 -19 64 -32 -4 -10 -10
-25 -12 -34 -5 -16 -24 -18 -217 -18 l-212 0 -12 32 c-6 17 -11 33 -9 34 1 1
27 9 57 17 75 21 253 21 341 1z m606 0 l70 -15 -16 -35 -15 -34 -213 0 -213 0
0 23 c0 13 -5 28 -11 34 -18 18 103 41 222 42 65 1 134 -5 176 -15z m602 0
c60 -14 71 -19 65 -33 -3 -9 -9 -24 -11 -33 -5 -16 -24 -18 -217 -18 l-212 0
-15 34 -16 35 61 14 c85 20 257 21 345 1z m602 0 c58 -13 69 -19 64 -32 -4
-10 -10 -25 -12 -34 -5 -16 -24 -18 -217 -18 l-212 0 -12 32 c-6 17 -10 34 -8
36 3 2 28 10 58 17 77 19 255 18 339 -1z m600 0 c58 -13 69 -19 64 -32 -4 -10
-10 -25 -12 -34 -5 -16 -24 -18 -217 -18 l-212 0 -12 32 c-6 17 -10 34 -8 36
3 2 28 10 58 17 77 19 255 18 339 -1z m606 0 l70 -15 -16 -35 -15 -34 -211 0
-211 0 -12 32 c-6 17 -10 33 -9 34 1 2 30 9 62 17 83 20 256 21 342 1z m603 0
c51 -12 68 -20 61 -27 -6 -6 -11 -21 -11 -34 l0 -23 -213 0 -213 0 -15 34 -16
35 61 14 c86 20 257 21 346 1z m-5390 -349 l0 -195 -200 0 -200 0 0 195 0 195
200 0 200 0 0 -195z m600 0 l0 -195 -195 0 -195 0 0 195 0 195 195 0 195 0 0
-195z m600 0 l0 -195 -195 0 -195 0 0 195 0 195 195 0 195 0 0 -195z m600 0
l0 -195 -195 0 -195 0 0 195 0 195 195 0 195 0 0 -195z m600 0 l0 -195 -195 0
-195 0 0 195 0 195 195 0 195 0 0 -195z m610 0 l0 -195 -195 0 -195 0 0 195 0
195 195 0 195 0 0 -195z m600 0 l0 -195 -195 0 -195 0 0 195 0 195 195 0 195
0 0 -195z m600 0 l0 -195 -195 0 -195 0 0 195 0 195 195 0 195 0 0 -195z m600
0 l0 -195 -195 0 -195 0 0 195 0 195 195 0 195 0 0 -195z m610 0 l0 -195 -200
0 -200 0 0 195 0 195 200 0 200 0 0 -195z"/>
<path d="M8125 7316 c-106 -25 -115 -30 -115 -61 0 -13 -4 -27 -10 -30 -6 -4
-10 -71 -10 -169 0 -172 4 -186 47 -186 23 0 23 -2 23 -103 0 -67 4 -107 12
-115 17 -17 499 -17 516 0 8 8 12 48 12 115 l0 103 35 0 35 0 0 -103 c0 -67 4
-107 12 -115 17 -17 489 -17 506 0 8 8 12 48 12 115 l0 103 35 0 35 0 0 -103
c0 -67 4 -107 12 -115 9 -9 79 -12 253 -12 174 0 244 3 253 12 8 8 12 48 12
115 l0 103 35 0 35 0 0 -103 c0 -67 4 -107 12 -115 9 -9 79 -12 253 -12 174 0
244 3 253 12 8 8 12 48 12 115 l0 103 35 0 35 0 0 -103 c0 -67 4 -107 12 -115
9 -9 80 -12 258 -12 178 0 249 3 258 12 8 8 12 48 12 115 l0 103 35 0 35 0 0
-103 c0 -67 4 -107 12 -115 17 -17 489 -17 506 0 8 8 12 48 12 115 l0 103 35
0 35 0 0 -103 c0 -67 4 -107 12 -115 9 -9 79 -12 253 -12 174 0 244 3 253 12
8 8 12 48 12 115 l0 103 35 0 35 0 0 -103 c0 -67 4 -107 12 -115 17 -17 489
-17 506 0 8 8 12 48 12 115 l0 103 35 0 35 0 0 -103 c0 -67 4 -107 12 -115 9
-9 79 -12 253 -12 174 0 244 3 253 12 8 8 12 48 12 115 l0 103 40 0 40 0 0
-103 c0 -67 4 -107 12 -115 17 -17 489 -17 506 0 8 8 12 48 12 115 0 101 0
103 23 103 43 0 47 14 47 186 0 98 -4 165 -10 169 -5 3 -10 17 -10 29 0 34
-13 40 -130 65 -125 27 -276 26 -407 -4 -81 -19 -85 -19 -165 0 -132 30 -292
31 -417 2 l-105 -23 -95 23 c-130 31 -270 31 -406 0 l-100 -23 -95 23 c-130
31 -270 30 -406 0 l-101 -23 -104 23 c-125 29 -285 28 -416 -2 -81 -19 -85
-19 -165 0 -132 30 -292 31 -417 2 l-105 -23 -95 23 c-129 30 -270 30 -405 -1
l-100 -22 -95 23 c-130 31 -270 31 -407 0 l-100 -23 -100 22 c-134 31 -266 31
-400 1 l-100 -23 -100 22 c-131 30 -283 30 -409 0z m375 -62 c51 -12 68 -20
61 -27 -6 -6 -11 -21 -11 -34 l0 -23 -220 0 -220 0 0 23 c0 13 -5 28 -11 34
-18 18 103 41 222 42 66 1 134 -5 179 -15z m599 0 c60 -14 71 -19 65 -33 -3
-9 -9 -24 -11 -33 -5 -16 -24 -18 -218 -18 -194 0 -213 2 -218 18 -2 9 -8 24
-12 34 -17 41 255 63 394 32z m604 1 c33 -7 61 -15 63 -17 2 -3 -2 -19 -8 -36
l-12 -32 -212 0 c-193 0 -212 2 -217 18 -2 9 -8 24 -12 34 -5 13 5 19 57 31
81 19 265 21 341 2z m600 0 c33 -7 61 -15 63 -17 2 -3 -2 -19 -8 -36 l-12 -32
-211 0 -211 0 -12 32 c-6 17 -10 33 -9 34 1 2 30 9 62 17 78 19 264 20 338 2z
m607 -1 c51 -12 68 -20 61 -27 -6 -6 -11 -21 -11 -34 l0 -23 -220 0 -220 0 0
23 c0 13 -5 28 -11 34 -18 18 103 41 222 42 66 1 134 -5 179 -15z m599 0 c60
-14 71 -19 65 -33 -3 -9 -9 -24 -11 -33 -5 -16 -24 -18 -217 -18 l-212 0 -15
34 -16 35 61 14 c85 20 257 21 345 1z m604 1 c33 -7 61 -15 63 -17 2 -3 -2
-19 -8 -36 l-12 -32 -212 0 c-193 0 -212 2 -217 18 -2 9 -8 24 -12 34 -5 13 5
19 57 31 81 19 265 21 341 2z m600 0 c33 -7 61 -15 63 -17 2 -3 -2 -19 -8 -36
l-12 -32 -212 0 c-193 0 -212 2 -217 18 -2 9 -8 24 -12 34 -5 13 5 19 57 31
81 19 265 21 341 2z m604 -1 l70 -15 -16 -35 -15 -34 -211 0 -211 0 -12 32
c-6 17 -10 33 -9 34 1 2 30 9 62 17 83 20 256 21 342 1z m603 0 c51 -12 68
-20 61 -27 -6 -6 -11 -21 -11 -34 l0 -23 -213 0 -213 0 -15 34 -16 35 61 14
c86 20 257 21 346 1z m-5390 -349 l0 -195 -200 0 -200 0 0 195 0 195 200 0
200 0 0 -195z m600 0 l0 -195 -195 0 -195 0 0 195 0 195 195 0 195 0 0 -195z
m600 0 l0 -195 -195 0 -195 0 0 195 0 195 195 0 195 0 0 -195z m600 0 l0 -195
-195 0 -195 0 0 195 0 195 195 0 195 0 0 -195z m610 0 l0 -195 -200 0 -200 0
0 195 0 195 200 0 200 0 0 -195z m600 0 l0 -195 -195 0 -195 0 0 195 0 195
195 0 195 0 0 -195z m600 0 l0 -195 -195 0 -195 0 0 195 0 195 195 0 195 0 0
-195z m600 0 l0 -195 -195 0 -195 0 0 195 0 195 195 0 195 0 0 -195z m600 0
l0 -195 -195 0 -195 0 0 195 0 195 195 0 195 0 0 -195z m610 0 l0 -195 -195 0
-195 0 0 195 0 195 195 0 195 0 0 -195z"/>
<path d="M14925 7316 c-106 -25 -115 -30 -115 -61 0 -13 -4 -27 -10 -30 -6 -4
-10 -71 -10 -169 0 -172 4 -186 47 -186 23 0 23 -2 23 -103 0 -67 4 -107 12
-115 17 -17 499 -17 516 0 8 8 12 48 12 115 l0 103 35 0 35 0 0 -103 c0 -67 4
-107 12 -115 17 -17 489 -17 506 0 8 8 12 48 12 115 l0 103 35 0 35 0 0 -103
c0 -67 4 -107 12 -115 9 -9 79 -12 253 -12 174 0 244 3 253 12 8 8 12 48 12
115 l0 103 35 0 35 0 0 -103 c0 -67 4 -107 12 -115 9 -9 79 -12 253 -12 174 0
244 3 253 12 8 8 12 48 12 115 l0 103 35 0 35 0 0 -103 c0 -67 4 -107 12 -115
9 -9 79 -12 253 -12 174 0 244 3 253 12 8 8 12 48 12 115 l0 103 40 0 40 0 0
-103 c0 -67 4 -107 12 -115 17 -17 489 -17 506 0 8 8 12 48 12 115 l0 103 35
0 35 0 0 -103 c0 -67 4 -107 12 -115 9 -9 79 -12 253 -12 174 0 244 3 253 12
8 8 12 48 12 115 l0 103 35 0 35 0 0 -103 c0 -67 4 -107 12 -115 17 -17 489
-17 506 0 8 8 12 48 12 115 l0 103 35 0 35 0 0 -103 c0 -67 4 -107 12 -115 9
-9 79 -12 253 -12 174 0 244 3 253 12 8 8 12 48 12 115 l0 103 35 0 35 0 0
-103 c0 -67 4 -107 12 -115 17 -17 499 -17 516 0 8 8 12 48 12 115 0 101 0
103 23 103 43 0 47 14 47 186 0 98 -4 165 -10 169 -5 3 -10 17 -10 29 0 34
-13 40 -130 65 -125 27 -276 26 -407 -4 -81 -19 -85 -19 -165 0 -132 30 -292
31 -417 2 l-104 -23 -101 23 c-136 30 -276 31 -406 0 l-95 -23 -100 23 c-136
31 -276 31 -406 0 l-95 -23 -105 23 c-125 29 -285 28 -416 -2 -81 -19 -85 -19
-165 0 -132 30 -292 31 -417 2 l-104 -23 -101 23 c-136 31 -277 31 -405 -1
l-93 -23 -102 23 c-137 32 -276 32 -407 1 l-95 -23 -100 22 c-135 31 -276 31
-405 1 l-95 -23 -100 22 c-131 30 -283 30 -409 0z m375 -62 c51 -12 68 -20 61
-27 -6 -6 -11 -21 -11 -34 l0 -23 -220 0 -220 0 0 23 c0 13 -5 28 -11 34 -18
18 103 41 222 42 66 1 134 -5 179 -15z m599 0 c60 -14 71 -19 65 -33 -3 -9 -9
-24 -11 -33 -5 -16 -24 -18 -217 -18 l-212 0 -12 32 c-6 17 -10 34 -8 36 3 2
28 10 58 17 77 19 252 18 337 -1z m602 0 c58 -13 69 -19 64 -32 -4 -10 -10
-25 -12 -34 -5 -16 -24 -18 -217 -18 l-212 0 -12 32 c-6 17 -10 34 -8 36 3 2
28 10 58 17 77 19 255 18 339 -1z m600 0 c58 -13 69 -19 64 -32 -4 -10 -10
-25 -12 -34 -5 -16 -24 -18 -217 -18 l-212 0 -12 32 c-6 17 -11 33 -9 34 1 1
27 9 57 17 75 21 253 21 341 1z m606 0 l70 -15 -16 -35 -15 -34 -213 0 -213 0
0 23 c0 13 -5 28 -11 34 -18 18 103 41 222 42 65 1 134 -5 176 -15z m602 0
c60 -14 71 -19 65 -33 -3 -9 -9 -24 -11 -33 -5 -16 -24 -18 -217 -18 l-212 0
-15 34 -16 35 61 14 c85 20 257 21 345 1z m602 0 c58 -13 69 -19 64 -32 -4
-10 -10 -25 -12 -34 -5 -16 -24 -18 -217 -18 l-212 0 -12 32 c-6 17 -10 34 -8
36 3 2 28 10 58 17 77 19 255 18 339 -1z m600 0 c58 -13 69 -19 64 -32 -4 -10
-10 -25 -12 -34 -5 -16 -24 -18 -217 -18 l-212 0 -12 32 c-6 17 -10 34 -8 36
3 2 28 10 58 17 77 19 255 18 339 -1z m606 0 l70 -15 -16 -35 -15 -34 -211 0
-211 0 -12 32 c-6 17 -10 33 -9 34 1 2 30 9 62 17 83 20 256 21 342 1z m603 0
c51 -12 68 -20 61 -27 -6 -6 -11 -21 -11 -34 l0 -23 -213 0 -213 0 -15 34 -16
35 61 14 c86 20 257 21 346 1z m-5390 -349 l0 -195 -200 0 -200 0 0 195 0 195
200 0 200 0 0 -195z m600 0 l0 -195 -195 0 -195 0 0 195 0 195 195 0 195 0 0
-195z m600 0 l0 -195 -195 0 -195 0 0 195 0 195 195 0 195 0 0 -195z m600 0
l0 -195 -195 0 -195 0 0 195 0 195 195 0 195 0 0 -195z m600 0 l0 -195 -195 0
-195 0 0 195 0 195 195 0 195 0 0 -195z m610 0 l0 -195 -195 0 -195 0 0 195 0
195 195 0 195 0 0 -195z m600 0 l0 -195 -195 0 -195 0 0 195 0 195 195 0 195
0 0 -195z m600 0 l0 -195 -195 0 -195 0 0 195 0 195 195 0 195 0 0 -195z m600
0 l0 -195 -195 0 -195 0 0 195 0 195 195 0 195 0 0 -195z m610 0 l0 -195 -200
0 -200 0 0 195 0 195 200 0 200 0 0 -195z"/>
<path d="M8121 6315 c-94 -23 -115 -36 -107 -67 2 -10 -2 -22 -10 -29 -11 -9
-14 -46 -14 -168 0 -166 4 -181 47 -181 23 0 23 -2 23 -103 0 -67 4 -107 12
-115 17 -17 499 -17 516 0 8 8 12 48 12 115 l0 103 35 0 35 0 0 -103 c0 -67 4
-107 12 -115 17 -17 489 -17 506 0 8 8 12 48 12 115 l0 103 35 0 35 0 0 -103
c0 -67 4 -107 12 -115 9 -9 79 -12 253 -12 174 0 244 3 253 12 8 8 12 48 12
115 l0 103 35 0 35 0 0 -103 c0 -67 4 -107 12 -115 9 -9 79 -12 253 -12 174 0
244 3 253 12 8 8 12 48 12 115 l0 103 35 0 35 0 0 -103 c0 -67 4 -107 12 -115
9 -9 80 -12 258 -12 178 0 249 3 258 12 8 8 12 48 12 115 l0 103 35 0 35 0 0
-103 c0 -67 4 -107 12 -115 17 -17 489 -17 506 0 8 8 12 48 12 115 l0 103 35
0 35 0 0 -103 c0 -67 4 -107 12 -115 9 -9 79 -12 253 -12 174 0 244 3 253 12
8 8 12 48 12 115 l0 103 35 0 35 0 0 -103 c0 -67 4 -107 12 -115 17 -17 489
-17 506 0 8 8 12 48 12 115 l0 103 35 0 35 0 0 -103 c0 -67 4 -107 12 -115 9
-9 79 -12 253 -12 174 0 244 3 253 12 8 8 12 48 12 115 l0 103 40 0 40 0 0
-103 c0 -67 4 -107 12 -115 17 -17 489 -17 506 0 8 8 12 48 12 115 0 101 0
103 23 103 43 0 47 15 47 181 0 120 -3 159 -14 168 -7 6 -11 21 -9 34 6 33 -9
41 -127 66 -125 27 -276 26 -407 -4 -81 -19 -85 -19 -165 0 -132 30 -292 31
-417 2 l-105 -23 -95 23 c-130 31 -270 31 -406 0 l-100 -23 -95 23 c-130 31
-270 30 -406 0 l-101 -23 -104 23 c-125 29 -285 28 -416 -2 -81 -19 -85 -19
-165 0 -132 30 -292 31 -417 2 l-105 -23 -95 23 c-129 30 -270 30 -405 -1
l-100 -22 -95 23 c-130 31 -270 31 -407 0 l-100 -23 -100 22 c-135 31 -266 31
-402 0 l-102 -23 -98 23 c-131 32 -280 31 -411 -1z m378 -61 c68 -15 83 -25
61 -39 -5 -3 -10 -15 -10 -26 0 -18 -9 -19 -220 -19 -211 0 -220 1 -220 19 0
11 -4 23 -10 26 -22 13 -7 24 53 38 86 20 258 21 346 1z m600 0 c60 -14 71
-19 65 -33 -3 -9 -9 -24 -11 -33 -5 -16 -24 -18 -218 -18 -194 0 -213 2 -218
18 -2 9 -8 24 -12 34 -17 41 255 63 394 32z m604 1 c33 -7 61 -15 63 -17 2 -3
-2 -19 -8 -36 l-12 -32 -212 0 c-193 0 -212 2 -217 18 -2 9 -8 24 -12 34 -5
13 5 19 57 31 81 19 265 21 341 2z m600 0 c33 -7 61 -15 63 -17 2 -3 -2 -19
-8 -36 l-12 -32 -211 0 -211 0 -12 32 c-6 17 -10 33 -9 34 1 2 30 9 62 17 78
19 264 20 338 2z m606 -1 c68 -15 83 -25 61 -39 -5 -3 -10 -15 -10 -26 0 -18
-9 -19 -220 -19 -211 0 -220 1 -220 19 0 11 -4 23 -10 26 -22 13 -7 24 53 38
86 20 258 21 346 1z m600 0 c60 -14 71 -19 65 -33 -3 -9 -9 -24 -11 -33 -5
-16 -24 -18 -217 -18 l-212 0 -17 34 -16 34 62 15 c86 20 258 21 346 1z m604
1 c33 -7 61 -15 63 -17 2 -3 -2 -19 -8 -36 l-12 -32 -212 0 c-193 0 -212 2
-217 18 -2 9 -8 24 -12 34 -5 13 5 19 57 31 81 19 265 21 341 2z m600 0 c33
-7 61 -15 63 -17 2 -3 -2 -19 -8 -36 l-12 -32 -212 0 c-193 0 -212 2 -217 18
-2 9 -8 24 -12 34 -5 13 5 19 57 31 81 19 265 21 341 2z m605 -1 l71 -16 -16
-34 -17 -34 -211 0 -211 0 -12 32 c-6 17 -10 33 -9 34 1 2 30 9 62 17 83 20
256 21 343 1z m601 0 c68 -15 83 -25 61 -39 -5 -3 -10 -15 -10 -26 0 -18 -9
-19 -213 -19 l-213 0 -17 34 -16 34 62 15 c86 20 258 21 346 1z m-5389 -349
l0 -195 -200 0 -200 0 0 195 0 195 200 0 200 0 0 -195z m600 0 l0 -195 -195 0
-195 0 0 195 0 195 195 0 195 0 0 -195z m600 0 l0 -195 -195 0 -195 0 0 195 0
195 195 0 195 0 0 -195z m600 0 l0 -195 -195 0 -195 0 0 195 0 195 195 0 195
0 0 -195z m610 0 l0 -195 -200 0 -200 0 0 195 0 195 200 0 200 0 0 -195z m600
0 l0 -195 -195 0 -195 0 0 195 0 195 195 0 195 0 0 -195z m600 0 l0 -195 -195
0 -195 0 0 195 0 195 195 0 195 0 0 -195z m600 0 l0 -195 -195 0 -195 0 0 195
0 195 195 0 195 0 0 -195z m600 0 l0 -195 -195 0 -195 0 0 195 0 195 195 0
195 0 0 -195z m610 0 l0 -195 -195 0 -195 0 0 195 0 195 195 0 195 0 0 -195z"/>
<path d="M14925 6316 c-108 -25 -118 -31 -112 -62 2 -13 -2 -29 -9 -35 -11 -9
-14 -48 -14 -168 0 -166 4 -181 47 -181 23 0 23 -2 23 -103 0 -67 4 -107 12
-115 17 -17 499 -17 516 0 8 8 12 48 12 115 l0 103 35 0 35 0 0 -103 c0 -67 4
-107 12 -115 17 -17 489 -17 506 0 8 8 12 48 12 115 l0 103 35 0 35 0 0 -103
c0 -67 4 -107 12 -115 9 -9 79 -12 253 -12 174 0 244 3 253 12 8 8 12 48 12
115 l0 103 35 0 35 0 0 -103 c0 -67 4 -107 12 -115 9 -9 79 -12 253 -12 174 0
244 3 253 12 8 8 12 48 12 115 l0 103 35 0 35 0 0 -103 c0 -67 4 -107 12 -115
9 -9 79 -12 253 -12 174 0 244 3 253 12 8 8 12 48 12 115 l0 103 40 0 40 0 0
-103 c0 -67 4 -107 12 -115 17 -17 489 -17 506 0 8 8 12 48 12 115 l0 103 35
0 35 0 0 -103 c0 -67 4 -107 12 -115 9 -9 79 -12 253 -12 174 0 244 3 253 12
8 8 12 48 12 115 l0 103 35 0 35 0 0 -103 c0 -67 4 -107 12 -115 17 -17 489
-17 506 0 8 8 12 48 12 115 l0 103 35 0 35 0 0 -103 c0 -67 4 -107 12 -115 9
-9 79 -12 253 -12 174 0 244 3 253 12 8 8 12 48 12 115 l0 103 35 0 35 0 0
-103 c0 -67 4 -107 12 -115 17 -17 499 -17 516 0 8 8 12 48 12 115 0 101 0
103 23 103 43 0 47 15 47 181 0 122 -3 159 -14 168 -8 7 -12 20 -9 29 7 29
-27 48 -125 71 -127 29 -266 28 -393 -2 l-95 -23 -100 22 c-134 31 -274 31
-408 0 l-100 -22 -100 23 c-136 30 -276 31 -406 0 l-95 -23 -100 23 c-136 31
-276 31 -406 0 l-95 -23 -105 23 c-125 29 -285 28 -416 -2 -81 -19 -85 -19
-165 0 -132 30 -292 31 -417 2 l-104 -23 -101 23 c-136 31 -277 31 -405 -1
l-93 -23 -102 23 c-137 32 -276 32 -407 1 l-95 -23 -100 22 c-135 31 -276 31
-405 1 l-95 -23 -100 22 c-131 30 -283 30 -409 0z m374 -62 c68 -15 83 -25 61
-39 -5 -3 -10 -15 -10 -26 0 -18 -9 -19 -220 -19 -211 0 -220 1 -220 19 0 11
-4 23 -10 26 -22 13 -7 24 53 38 86 20 258 21 346 1z m600 0 c60 -14 71 -19
65 -33 -3 -9 -9 -24 -11 -33 -5 -16 -24 -18 -217 -18 l-212 0 -12 32 c-6 17
-10 34 -8 36 3 2 28 10 58 17 77 19 252 18 337 -1z m602 0 c58 -13 69 -19 64
-32 -4 -10 -10 -25 -12 -34 -5 -16 -24 -18 -217 -18 l-212 0 -12 32 c-6 17
-10 34 -8 36 3 2 28 10 58 17 77 19 255 18 339 -1z m600 0 c58 -13 69 -19 64
-32 -4 -10 -10 -25 -12 -34 -5 -16 -24 -18 -217 -18 l-212 0 -12 32 c-6 17
-11 33 -9 34 1 1 27 9 57 17 75 21 253 21 341 1z m607 0 l71 -16 -16 -34 -17
-34 -213 0 c-204 0 -213 1 -213 19 0 11 -4 23 -10 26 -22 13 -7 24 53 38 86
20 258 21 345 1z m601 0 c60 -14 71 -19 65 -33 -3 -9 -9 -24 -11 -33 -5 -16
-24 -18 -217 -18 l-212 0 -17 34 -16 34 62 15 c86 20 258 21 346 1z m602 0
c58 -13 69 -19 64 -32 -4 -10 -10 -25 -12 -34 -5 -16 -24 -18 -217 -18 l-212
0 -12 32 c-6 17 -10 34 -8 36 3 2 28 10 58 17 77 19 255 18 339 -1z m600 0
c58 -13 69 -19 64 -32 -4 -10 -10 -25 -12 -34 -5 -16 -24 -18 -217 -18 l-212
0 -12 32 c-6 17 -10 34 -8 36 3 2 28 10 58 17 77 19 255 18 339 -1z m607 0
l71 -16 -16 -34 -17 -34 -211 0 -211 0 -12 32 c-6 17 -10 33 -9 34 1 2 30 9
62 17 83 20 256 21 343 1z m601 0 c68 -15 83 -25 61 -39 -5 -3 -10 -15 -10
-26 0 -18 -9 -19 -213 -19 l-213 0 -17 34 -16 34 62 15 c86 20 258 21 346 1z
m-5389 -349 l0 -195 -200 0 -200 0 0 195 0 195 200 0 200 0 0 -195z m600 0 l0
-195 -195 0 -195 0 0 195 0 195 195 0 195 0 0 -195z m600 0 l0 -195 -195 0
-195 0 0 195 0 195 195 0 195 0 0 -195z m600 0 l0 -195 -195 0 -195 0 0 195 0
195 195 0 195 0 0 -195z m600 0 l0 -195 -195 0 -195 0 0 195 0 195 195 0 195
0 0 -195z m610 0 l0 -195 -195 0 -195 0 0 195 0 195 195 0 195 0 0 -195z m600
0 l0 -195 -195 0 -195 0 0 195 0 195 195 0 195 0 0 -195z m600 0 l0 -195 -195
0 -195 0 0 195 0 195 195 0 195 0 0 -195z m600 0 l0 -195 -195 0 -195 0 0 195
0 195 195 0 195 0 0 -195z m610 0 l0 -195 -200 0 -200 0 0 195 0 195 200 0
200 0 0 -195z"/>
<path d="M10722 3658 c-17 -17 -17 -2339 0 -2356 17 -17 7419 -17 7436 0 17
17 17 2339 0 2356 -17 17 -7419 17 -7436 0z m7378 -1178 l0 -1120 -3660 0
-3660 0 0 1120 0 1120 3660 0 3660 0 0 -1120z"/>
<path d="M940 650 c0 -6 85 -10 236 -10 154 0 233 3 229 10 -4 6 -93 10 -236
10 -146 0 -229 -4 -229 -10z"/>
<path d="M1640 650 c0 -6 85 -10 236 -10 154 0 233 3 229 10 -4 6 -93 10 -236
10 -146 0 -229 -4 -229 -10z"/>
<path d="M2340 650 c0 -6 85 -10 236 -10 154 0 233 3 229 10 -4 6 -93 10 -236
10 -146 0 -229 -4 -229 -10z"/>
<path d="M3040 650 c0 -6 85 -10 236 -10 154 0 233 3 229 10 -4 6 -93 10 -236
10 -146 0 -229 -4 -229 -10z"/>
<path d="M3730 650 c0 -6 87 -10 241 -10 157 0 238 3 234 10 -4 6 -95 10 -241
10 -149 0 -234 -4 -234 -10z"/>
<path d="M4430 650 c0 -6 85 -10 236 -10 154 0 233 3 229 10 -4 6 -93 10 -236
10 -146 0 -229 -4 -229 -10z"/>
<path d="M5130 650 c0 -6 85 -10 236 -10 154 0 233 3 229 10 -4 6 -93 10 -236
10 -146 0 -229 -4 -229 -10z"/>
<path d="M12110 650 c0 -6 85 -10 236 -10 154 0 233 3 229 10 -4 6 -93 10
-236 10 -146 0 -229 -4 -229 -10z"/>
<path d="M12810 650 c0 -6 85 -10 236 -10 154 0 233 3 229 10 -4 6 -93 10
-236 10 -146 0 -229 -4 -229 -10z"/>
<path d="M13510 650 c0 -6 85 -10 236 -10 154 0 233 3 229 10 -4 6 -93 10
-236 10 -146 0 -229 -4 -229 -10z"/>
<path d="M14200 650 c0 -6 87 -10 241 -10 157 0 238 3 234 10 -4 6 -95 10
-241 10 -149 0 -234 -4 -234 -10z"/>
<path d="M14900 650 c0 -6 85 -10 236 -10 154 0 233 3 229 10 -4 6 -93 10
-236 10 -146 0 -229 -4 -229 -10z"/>
<path d="M15600 650 c0 -6 85 -10 236 -10 154 0 233 3 229 10 -4 6 -93 10
-236 10 -146 0 -229 -4 -229 -10z"/>
<path d="M16300 650 c0 -6 85 -10 236 -10 154 0 233 3 229 10 -4 6 -93 10
-236 10 -146 0 -229 -4 -229 -10z"/>
<path d="M23280 650 c0 -6 85 -10 236 -10 154 0 233 3 229 10 -4 6 -93 10
-236 10 -146 0 -229 -4 -229 -10z"/>
<path d="M23980 650 c0 -6 85 -10 236 -10 154 0 233 3 229 10 -4 6 -93 10
-236 10 -146 0 -229 -4 -229 -10z"/>
<path d="M24680 650 c0 -6 85 -10 236 -10 154 0 233 3 229 10 -4 6 -93 10
-236 10 -146 0 -229 -4 -229 -10z"/>
<path d="M25370 650 c0 -6 87 -10 241 -10 157 0 238 3 234 10 -4 6 -95 10
-241 10 -149 0 -234 -4 -234 -10z"/>
<path d="M26070 650 c0 -6 85 -10 236 -10 154 0 233 3 229 10 -4 6 -93 10
-236 10 -146 0 -229 -4 -229 -10z"/>
<path d="M26770 650 c0 -6 85 -10 236 -10 154 0 233 3 229 10 -4 6 -93 10
-236 10 -146 0 -229 -4 -229 -10z"/>
<path d="M27470 650 c0 -6 85 -10 236 -10 154 0 233 3 229 10 -4 6 -93 10
-236 10 -146 0 -229 -4 -229 -10z"/>
<path d="M6535 59960 c-4 -7 75 -10 229 -10 151 0 236 4 236 10 0 6 -83 10
-229 10 -143 0 -232 -4 -236 -10z"/>
<path d="M7225 59960 c-4 -7 77 -10 234 -10 154 0 241 4 241 10 0 6 -85 10
-234 10 -146 0 -237 -4 -241 -10z"/>
<path d="M7925 59960 c-4 -7 75 -10 229 -10 151 0 236 4 236 10 0 6 -83 10
-229 10 -143 0 -232 -4 -236 -10z"/>
<path d="M8625 59960 c-4 -7 75 -10 229 -10 151 0 236 4 236 10 0 6 -83 10
-229 10 -143 0 -232 -4 -236 -10z"/>
<path d="M9325 59960 c-4 -7 75 -10 229 -10 151 0 236 4 236 10 0 6 -83 10
-229 10 -143 0 -232 -4 -236 -10z"/>
<path d="M10025 59960 c-4 -7 75 -10 229 -10 151 0 236 4 236 10 0 6 -83 10
-229 10 -143 0 -232 -4 -236 -10z"/>
<path d="M10715 59960 c-4 -7 77 -10 234 -10 154 0 241 4 241 10 0 6 -85 10
-234 10 -146 0 -237 -4 -241 -10z"/>
<path d="M17695 59960 c-4 -7 77 -10 234 -10 154 0 241 4 241 10 0 6 -85 10
-234 10 -146 0 -237 -4 -241 -10z"/>
<path d="M18395 59960 c-4 -7 75 -10 229 -10 151 0 236 4 236 10 0 6 -83 10
-229 10 -143 0 -232 -4 -236 -10z"/>
<path d="M19095 59960 c-4 -7 75 -10 229 -10 151 0 236 4 236 10 0 6 -83 10
-229 10 -143 0 -232 -4 -236 -10z"/>
<path d="M19795 59960 c-4 -7 75 -10 229 -10 151 0 236 4 236 10 0 6 -83 10
-229 10 -143 0 -232 -4 -236 -10z"/>
<path d="M20495 59960 c-4 -7 75 -10 229 -10 151 0 236 4 236 10 0 6 -83 10
-229 10 -143 0 -232 -4 -236 -10z"/>
<path d="M21195 59960 c-4 -7 75 -10 229 -10 151 0 236 4 236 10 0 6 -83 10
-229 10 -143 0 -232 -4 -236 -10z"/>
<path d="M21885 59960 c-4 -7 75 -10 229 -10 151 0 236 4 236 10 0 6 -83 10
-229 10 -143 0 -232 -4 -236 -10z"/>
<path d="M6530 650 c0 -6 85 -10 236 -10 154 0 233 3 229 10 -4 6 -93 10 -236
10 -146 0 -229 -4 -229 -10z"/>
<path d="M7220 650 c0 -6 87 -10 241 -10 157 0 238 3 234 10 -4 6 -95 10 -241
10 -149 0 -234 -4 -234 -10z"/>
<path d="M7920 650 c0 -6 85 -10 236 -10 154 0 233 3 229 10 -4 6 -93 10 -236
10 -146 0 -229 -4 -229 -10z"/>
<path d="M8620 650 c0 -6 85 -10 236 -10 154 0 233 3 229 10 -4 6 -93 10 -236
10 -146 0 -229 -4 -229 -10z"/>
<path d="M9320 650 c0 -6 85 -10 236 -10 154 0 233 3 229 10 -4 6 -93 10 -236
10 -146 0 -229 -4 -229 -10z"/>
<path d="M10020 650 c0 -6 85 -10 236 -10 154 0 233 3 229 10 -4 6 -93 10
-236 10 -146 0 -229 -4 -229 -10z"/>
<path d="M10710 650 c0 -6 87 -10 241 -10 157 0 238 3 234 10 -4 6 -95 10
-241 10 -149 0 -234 -4 -234 -10z"/>
<path d="M17690 650 c0 -6 87 -10 241 -10 157 0 238 3 234 10 -4 6 -95 10
-241 10 -149 0 -234 -4 -234 -10z"/>
<path d="M18390 650 c0 -6 85 -10 236 -10 154 0 233 3 229 10 -4 6 -93 10
-236 10 -146 0 -229 -4 -229 -10z"/>
<path d="M19090 650 c0 -6 85 -10 236 -10 154 0 233 3 229 10 -4 6 -93 10
-236 10 -146 0 -229 -4 -229 -10z"/>
<path d="M19790 650 c0 -6 85 -10 236 -10 154 0 233 3 229 10 -4 6 -93 10
-236 10 -146 0 -229 -4 -229 -10z"/>
<path d="M20490 650 c0 -6 85 -10 236 -10 154 0 233 3 229 10 -4 6 -93 10
-236 10 -146 0 -229 -4 -229 -10z"/>
<path d="M21190 650 c0 -6 85 -10 236 -10 154 0 233 3 229 10 -4 6 -93 10
-236 10 -146 0 -229 -4 -229 -10z"/>
<path d="M21880 650 c0 -6 85 -10 236 -10 154 0 233 3 229 10 -4 6 -93 10
-236 10 -146 0 -229 -4 -229 -10z"/>
</g>
</svg>
